<?xml version="1.0" standalone="no"?>
<!DOCTYPE svg PUBLIC "-//W3C//DTD SVG 20010904//EN"
 "http://www.w3.org/TR/2001/REC-SVG-20010904/DTD/svg10.dtd">
<svg version="1.0" xmlns="http://www.w3.org/2000/svg"
 width="1536.000000pt" height="1024.000000pt" viewBox="0 0 1536.000000 1024.000000"
 preserveAspectRatio="xMidYMid meet">

<g transform="translate(0.000000,1024.000000) scale(0.100000,-0.100000)"
fill="#000000" stroke="none">
<path d="M0 9120 c1 -616 5 -1120 9 -1120 5 0 11 6 14 14 3 8 16 12 31 11 14
-2 24 1 20 6 -3 5 -20 7 -37 4 -26 -4 -28 -3 -15 5 23 14 23 40 1 40 -15 0
-16 2 -3 10 10 6 16 6 18 0 2 -6 11 -10 20 -11 11 0 12 -2 5 -6 -25 -9 -12
-21 27 -25 22 -2 42 1 44 7 2 5 7 7 11 3 13 -13 -6 -28 -30 -24 -17 3 -22 1
-18 -10 5 -14 2 -16 -39 -17 -13 0 -27 -7 -31 -14 -5 -7 -12 -11 -18 -8 -5 4
-9 4 -9 1 0 -3 10 -10 21 -17 12 -6 19 -7 15 -1 -11 19 21 35 44 22 12 -6 24
-9 28 -6 3 3 0 6 -7 6 -7 0 -10 4 -7 9 3 4 17 6 31 3 20 -3 24 -1 19 12 -5 12
-2 15 9 10 12 -4 14 -1 10 15 -3 12 -9 24 -14 27 -5 3 -9 10 -9 15 0 6 7 4 15
-5 9 -9 23 -12 33 -9 14 6 15 4 5 -9 -11 -13 -8 -15 23 -16 19 -1 32 3 29 7
-3 5 1 12 7 14 10 4 10 6 1 6 -7 1 -13 9 -13 19 0 14 2 15 10 2 8 -13 11 -13
19 -1 5 8 16 11 24 8 9 -3 18 -1 20 6 2 7 8 8 13 3 5 -5 4 -11 -3 -13 -7 -3
-13 -9 -13 -15 0 -7 5 -7 13 1 8 6 16 8 19 6 3 -3 4 14 2 37 -2 29 0 38 6 28
5 -8 6 -18 4 -22 -3 -4 4 -8 15 -8 11 0 19 6 17 13 -1 6 -1 9 1 4 3 -4 9 -5
14 -1 5 3 9 0 9 -5 0 -19 17 -12 27 12 10 21 10 21 10 -5 0 -15 -3 -25 -8 -22
-5 3 -9 0 -9 -6 0 -6 12 -8 30 -5 17 3 30 1 30 -5 0 -5 -5 -10 -12 -10 -6 0
-8 -3 -5 -6 4 -4 13 -1 22 6 10 8 15 9 15 1 0 -6 5 -11 12 -11 6 0 0 13 -15
28 -15 15 -27 32 -27 38 0 5 4 4 8 -2 4 -6 22 -19 40 -28 33 -17 33 -17 22 5
-8 14 -8 19 -1 15 6 -4 11 -2 11 5 0 8 4 8 13 1 8 -7 18 -7 27 -2 8 6 12 10 7
10 -4 0 0 11 9 25 9 14 26 25 38 25 20 -1 20 -1 -3 -14 -14 -8 -26 -22 -27
-32 -2 -10 -11 -24 -20 -31 -10 -7 -13 -13 -7 -13 7 0 14 4 18 10 3 5 11 7 19
4 8 -3 12 3 12 17 -1 27 17 35 36 16 8 -8 27 -14 42 -14 20 0 24 2 15 8 -8 5
-12 9 -9 10 3 0 15 2 28 5 23 4 31 -11 10 -19 -7 -3 -3 -4 8 -4 14 1 20 6 16
15 -4 11 0 13 16 8 11 -4 23 -2 27 4 8 14 -23 63 -35 55 -5 -3 -11 -1 -15 5
-10 16 17 12 37 -7 10 -9 18 -11 18 -5 0 6 7 9 15 6 8 -4 12 -10 9 -15 -3 -5
-10 -7 -15 -4 -17 11 -9 -4 14 -26 17 -17 18 -21 5 -16 -20 7 -25 -8 -7 -19 6
-3 15 0 20 7 7 12 12 12 29 1 19 -12 20 -11 11 6 -6 11 -7 23 -3 28 4 5 -1 2
-11 -5 -21 -16 -27 -12 -29 20 -2 44 2 60 12 54 6 -4 8 -11 4 -16 -7 -12 46
-60 58 -53 13 8 9 24 -5 19 -6 -3 -18 4 -25 15 -7 11 -8 20 -3 20 5 0 12 -6
14 -12 4 -10 8 -9 16 2 6 8 11 10 11 4 0 -6 14 -11 30 -11 17 0 30 4 30 9 0 8
-15 12 -37 9 -6 -1 -14 2 -17 7 -3 5 5 8 17 7 12 -1 33 -3 47 -4 19 -1 21 -4
11 -10 -12 -8 -11 -12 3 -27 17 -16 17 -16 14 2 -2 12 5 22 18 28 12 6 27 24
34 42 10 25 16 29 25 21 10 -9 9 -15 -4 -27 -10 -8 -20 -23 -24 -32 -4 -11
-12 -15 -22 -12 -8 4 -15 1 -15 -6 0 -7 8 -10 20 -7 10 3 21 2 23 -2 2 -3 3
-1 1 5 -4 17 49 62 65 56 9 -3 11 0 6 8 -5 9 -4 11 3 6 19 -11 14 -26 -9 -26
-11 0 -26 -6 -33 -12 -15 -16 -18 -58 -5 -58 6 0 8 4 5 9 -3 5 1 12 10 15 12
5 15 2 10 -10 -5 -14 -4 -15 8 -5 11 9 15 9 19 -1 3 -7 4 -3 4 9 -1 17 -6 20
-30 17 -24 -3 -27 -1 -17 11 7 8 24 13 41 11 16 -2 32 0 35 5 3 5 0 9 -5 9 -6
0 -11 5 -11 11 0 6 7 8 16 5 9 -3 12 -2 8 5 -3 6 3 5 14 -2 12 -7 19 -17 16
-21 -3 -4 -1 -15 4 -23 7 -14 11 -13 27 5 10 11 13 20 7 20 -6 0 -13 -5 -15
-10 -3 -6 -4 -5 -3 2 2 7 -6 18 -17 24 -13 7 -16 14 -8 18 6 4 11 3 11 -3 0
-6 7 -7 17 -4 11 4 14 3 9 -5 -8 -13 6 -17 18 -5 3 4 14 8 22 9 13 2 13 0 -2
-17 -17 -18 -16 -19 15 -15 36 4 48 12 36 24 -4 4 -10 1 -12 -5 -3 -7 -9 -13
-14 -13 -4 0 -6 7 -2 16 3 9 13 14 24 11 15 -4 18 0 15 24 -3 29 -3 29 14 12
12 -12 14 -20 6 -25 -12 -8 -3 -11 29 -9 17 2 18 0 5 -9 -13 -10 -12 -11 3 -6
10 3 29 -1 43 -10 22 -15 24 -15 24 0 0 9 -8 16 -20 16 -11 0 -20 3 -21 8 0 4
-2 14 -4 22 -1 10 5 17 19 18 15 1 17 -1 7 -7 -7 -5 -10 -14 -7 -20 5 -8 11
-7 21 2 11 10 11 16 -1 37 l-15 25 21 -24 c18 -21 23 -23 32 -10 8 12 9 12 5
-2 -5 -16 30 -45 41 -35 3 3 -1 6 -9 6 -10 1 -9 4 4 11 13 7 16 17 11 32 -6
21 -6 21 12 2 13 -13 15 -20 6 -23 -14 -4 -16 -32 -2 -32 22 0 25 2 22 15 -4
23 16 27 23 5 4 -14 12 -19 23 -16 9 3 29 0 43 -8 21 -11 26 -11 26 0 0 8 -11
14 -24 14 -13 0 -22 4 -18 10 3 5 13 7 23 4 14 -5 15 -4 2 5 -8 5 -11 13 -7
17 4 4 2 13 -5 21 -6 7 -8 16 -4 20 3 3 6 1 6 -6 0 -9 5 -9 20 -1 20 11 30 -3
10 -15 -14 -9 -12 -25 3 -23 6 2 11 -3 9 -9 -3 -17 6 -16 24 2 14 13 13 15 -6
15 -12 0 -19 4 -16 9 4 5 14 8 24 6 9 -2 21 -4 25 -4 5 -1 6 -5 3 -9 -2 -4 -1
-14 5 -22 7 -12 9 -11 9 6 0 11 -5 25 -12 32 -10 10 -8 16 5 29 9 10 17 12 17
6 0 -6 -6 -14 -12 -16 -7 -3 -3 -6 10 -6 13 -1 21 3 18 7 -3 5 2 9 10 9 10 0
14 -7 11 -19 -5 -19 8 -25 18 -8 3 6 17 10 31 10 13 0 24 5 24 10 0 6 -5 10
-11 10 -5 0 -7 5 -4 10 3 6 11 10 16 10 6 0 7 -5 3 -12 -5 -8 -2 -9 9 -5 24 9
21 -16 -4 -31 -11 -7 -30 -10 -41 -6 -18 5 -19 4 -7 -9 8 -8 21 -13 29 -12 8
1 19 -3 23 -9 5 -6 5 0 2 12 -6 21 -4 23 15 17 15 -5 20 -4 16 4 -4 6 -2 11 3
11 6 0 11 7 11 15 0 8 8 15 18 15 14 0 15 -2 2 -10 -8 -5 -12 -12 -8 -15 3 -3
14 2 24 12 18 18 54 27 54 12 0 -4 -10 -9 -22 -11 -13 -2 -22 -8 -21 -14 1 -5
-8 -11 -19 -11 -24 -2 -34 -10 -25 -19 4 -4 12 -3 19 3 7 5 23 8 35 7 12 0 21
4 20 10 -1 6 13 10 36 10 l37 -1 -25 23 c-35 32 -31 37 9 11 18 -12 32 -25 29
-29 -2 -5 1 -8 6 -8 17 0 13 -30 -4 -36 -8 -4 -15 -11 -15 -18 0 -6 12 2 26
18 17 19 31 26 44 23 13 -3 20 0 20 10 0 11 -7 14 -23 9 -16 -4 -28 1 -40 14
-19 23 -15 25 13 8 17 -11 22 -10 29 1 6 9 11 10 15 2 4 -6 12 -9 17 -6 5 4
17 1 26 -4 13 -7 14 -10 4 -11 -8 0 -12 -2 -9 -5 3 -4 22 3 42 14 l36 21 0
-25 c0 -14 -5 -25 -11 -25 -5 0 -7 5 -3 11 4 8 0 8 -15 0 -28 -16 -27 -18 13
-19 32 -1 34 0 30 26 -7 37 -25 57 -35 40 -5 -7 -9 -8 -9 -3 0 6 4 17 10 25 8
12 10 12 16 -3 8 -23 26 -22 42 4 9 14 19 18 34 13 14 -4 18 -2 14 5 -4 6 -3
11 3 11 5 0 13 -5 17 -11 8 -14 -18 -31 -30 -19 -10 10 -36 2 -36 -11 0 -5 16
-9 35 -7 19 1 35 6 35 10 0 4 7 5 15 2 24 -10 17 -24 -12 -24 -36 0 -22 -12
19 -16 18 -1 27 0 20 3 -6 2 -9 9 -6 14 3 6 -7 26 -22 46 -23 30 -24 35 -8 29
10 -5 25 -9 32 -9 6 0 12 -5 12 -10 0 -5 -7 -6 -16 -3 -14 5 -15 4 -4 -9 10
-12 16 -13 26 -4 8 6 14 18 14 25 0 8 5 14 11 14 5 0 8 -4 4 -9 -9 -16 8 -20
52 -12 33 7 43 5 48 -7 3 -8 3 -17 0 -20 -3 -3 -5 0 -5 6 0 7 -9 12 -20 12
-11 0 -20 -5 -20 -11 0 -6 -7 -9 -15 -5 -8 3 -15 2 -15 -3 0 -5 12 -11 26 -14
19 -3 24 -1 20 10 -4 9 -1 13 6 10 7 -2 12 -10 10 -16 -3 -17 15 -13 22 4 3 8
10 15 17 15 6 0 9 -6 6 -14 -4 -9 0 -12 13 -9 12 3 17 11 13 21 -4 13 -3 14 5
4 5 -7 18 -15 28 -16 10 -2 18 -8 17 -13 -1 -5 4 -10 12 -10 8 0 12 4 9 9 -3
4 5 8 18 8 18 0 20 -2 8 -10 -9 -6 -10 -10 -3 -10 17 0 29 23 15 28 -7 2 -12
11 -12 20 0 13 2 14 9 3 6 -9 11 -10 15 -2 4 6 4 16 1 22 -4 6 3 5 15 -3 18
-11 22 -11 31 5 10 18 11 18 25 0 8 -11 13 -13 14 -5 0 6 4 12 8 12 5 0 7 -13
6 -29 -2 -30 6 -33 47 -16 11 4 22 -1 31 -13 12 -18 15 -19 33 -5 19 15 19 15
1 9 -16 -5 -17 -4 -7 8 7 8 19 12 27 9 17 -6 18 -15 4 -29 -7 -7 -6 -11 4 -11
8 0 12 5 9 10 -4 7 1 8 13 3 42 -17 50 -15 52 16 1 16 -1 27 -6 24 -4 -2 -9 5
-9 17 -2 17 0 19 7 7 10 -16 14 -7 10 25 -1 11 -7 23 -14 27 -6 4 4 6 22 4 18
-2 36 -7 40 -11 4 -4 -3 -4 -15 -1 -17 6 -23 3 -23 -9 0 -9 5 -13 11 -9 8 4 9
-1 5 -17 l-7 -24 21 24 c11 13 23 21 26 18 4 -3 -5 -17 -19 -31 -17 -17 -27
-21 -30 -13 -2 7 -7 9 -11 6 -4 -3 0 -12 8 -18 12 -10 19 -8 35 8 12 12 26 21
31 21 14 0 12 11 -5 30 -14 15 -14 18 0 30 9 7 15 9 14 4 -4 -22 2 -44 12 -44
7 0 9 10 5 28 l-6 27 14 -24 c12 -21 11 -27 -7 -47 -11 -13 -25 -20 -31 -17
-6 3 -8 3 -4 -2 4 -4 4 -13 -2 -19 -5 -7 -5 -17 0 -26 8 -12 10 -10 10 7 0 24
22 43 28 25 7 -23 21 -12 16 14 -4 22 -2 24 15 15 13 -7 18 -18 14 -33 -4 -22
-4 -22 9 2 8 14 20 24 26 23 7 -2 12 2 12 7 0 13 -17 13 -25 0 -4 -7 -14 -3
-26 11 -10 12 -16 26 -13 31 3 5 12 1 19 -9 11 -15 15 -16 31 -3 11 9 15 10
10 3 -5 -9 0 -12 18 -11 31 3 30 2 10 22 -9 9 -11 16 -4 16 6 0 8 4 5 10 -3 6
1 7 9 4 9 -3 14 -11 13 -17 -1 -7 4 -11 11 -10 6 2 12 -2 12 -8 0 -6 7 -17 15
-25 8 -9 15 -11 15 -5 0 5 -5 13 -10 16 -5 3 -10 14 -10 23 0 10 3 13 8 6 4
-6 15 -13 25 -17 10 -4 16 -10 13 -15 -2 -4 5 -8 17 -9 12 0 16 1 10 4 -7 3
-13 9 -13 14 0 6 4 8 9 5 5 -3 12 1 15 10 3 8 14 14 23 12 12 -2 17 3 15 12
-1 10 2 9 13 -4 8 -11 15 -26 15 -33 0 -12 13 -17 24 -10 2 1 14 -7 27 -18 13
-11 18 -13 12 -5 -16 18 -17 34 -1 24 6 -4 8 -3 4 4 -3 6 -2 13 4 17 6 4 10
-5 10 -21 0 -29 10 -28 14 2 2 10 9 20 16 22 9 3 11 -3 8 -22 -3 -14 -1 -26 3
-26 9 0 13 14 10 36 -1 6 6 17 14 24 10 9 15 9 15 1 0 -6 -6 -11 -12 -11 -10
0 -10 -3 0 -9 8 -5 15 -19 15 -33 1 -14 7 -25 14 -25 8 0 9 6 3 17 -6 11 -5
21 3 29 7 7 7 11 2 9 -11 -3 -15 4 -15 28 0 9 8 14 18 13 32 -3 35 1 16 23
l-19 22 26 -20 c20 -14 23 -21 14 -29 -7 -5 -15 -19 -17 -31 -4 -16 -1 -20 16
-18 12 1 28 3 36 3 8 1 21 11 29 22 11 19 11 21 -1 16 -8 -3 -21 -1 -29 4 -9
6 -4 8 18 5 18 -2 34 2 37 8 2 6 3 1 3 -11 -1 -12 -7 -25 -14 -27 -7 -3 -13
-10 -13 -16 0 -6 7 -5 20 2 11 7 20 23 20 36 0 13 4 20 10 17 6 -4 8 -11 5
-16 -4 -5 -1 -9 6 -9 7 0 9 8 6 21 -3 13 -1 19 6 16 7 -2 11 -12 11 -21 -2
-13 1 -14 12 -5 13 10 13 14 0 28 -13 14 -12 16 10 16 18 0 22 -4 18 -17 -6
-21 6 -24 24 -6 10 10 15 10 23 -2 9 -12 10 -10 6 7 -3 13 -1 26 4 29 5 3 9
-1 9 -9 0 -17 47 -40 55 -27 4 6 12 10 18 10 8 0 8 -3 -1 -9 -10 -6 -9 -11 5
-22 10 -7 15 -9 11 -5 -4 5 -3 15 3 23 6 7 8 13 4 13 -4 0 -2 7 5 15 7 8 16
12 21 9 5 -3 9 0 9 6 0 6 -6 13 -14 16 -8 3 -17 12 -20 20 -3 8 -2 13 3 9 5
-3 11 -2 14 2 2 5 2 2 0 -6 -2 -8 2 -11 11 -8 7 3 13 0 13 -6 -1 -36 4 -49 17
-44 8 3 17 -2 21 -11 5 -14 7 -14 15 -2 8 13 10 13 10 1 0 -8 2 -12 5 -9 9 8
-6 38 -16 32 -12 -7 -11 3 1 27 11 20 30 26 30 8 0 -5 -4 -7 -10 -4 -15 10
-12 -21 4 -34 10 -8 16 -9 21 -1 3 5 1 10 -5 10 -6 0 -9 4 -5 10 3 5 12 7 20
4 8 -4 13 -10 10 -14 -5 -8 28 -50 40 -50 5 0 0 8 -9 19 -14 16 -15 19 -2 24
8 3 17 3 19 -1 2 -4 2 -2 1 5 -5 19 15 26 22 8 4 -9 13 -14 20 -11 8 3 14 1
14 -4 0 -6 -5 -10 -12 -10 -6 0 -8 -3 -5 -6 9 -10 38 16 31 28 -3 5 0 15 6 23
10 12 10 18 0 30 -7 9 -10 18 -6 22 3 3 6 0 6 -7 0 -10 5 -9 18 3 20 19 42 22
42 8 0 -5 -10 -11 -22 -14 -20 -3 -21 -4 -5 -11 12 -6 23 -1 36 15 18 23 20
23 39 6 15 -14 21 -15 25 -5 3 7 4 2 4 -12 -1 -31 -27 -53 -44 -38 -7 6 -10
14 -8 19 3 4 -4 6 -16 4 -31 -6 -37 -15 -10 -15 16 0 21 -4 18 -15 -4 -8 -1
-17 5 -21 6 -4 8 -3 4 4 -6 11 -2 12 60 14 26 0 31 4 27 19 -3 10 -8 17 -12
15 -4 -3 -6 11 -6 29 0 24 3 31 11 24 7 -5 10 -18 7 -27 -4 -17 26 -62 42 -62
5 0 0 9 -9 19 -25 28 -11 45 19 25 22 -15 25 -15 31 -1 3 9 2 21 -2 28 -4 7
-3 9 4 5 6 -3 13 2 15 11 3 10 5 3 6 -14 0 -18 5 -33 11 -33 5 0 8 6 6 13 -1
6 -1 9 1 5 8 -14 25 -9 20 5 -3 8 0 14 7 14 8 0 11 -10 9 -26 -4 -25 -4 -25
11 -7 9 11 16 14 16 7 0 -7 4 -10 10 -6 5 3 6 13 3 23 -6 15 -5 15 12 -1 15
-16 16 -20 4 -29 -10 -7 -9 -8 6 -2 11 4 42 7 68 8 41 0 45 2 31 13 -10 7 -14
16 -10 20 4 4 10 3 14 -2 4 -6 16 -17 27 -25 16 -11 17 -11 8 0 -18 20 -16 26
7 26 12 0 19 -6 17 -15 -1 -9 4 -16 11 -17 6 -1 17 -2 23 -3 5 0 8 -5 4 -10
-7 -12 36 -11 51 1 7 5 9 18 6 30 l-5 21 -18 -22 c-17 -20 -20 -21 -39 -8 -18
13 -19 15 -5 21 9 3 13 2 10 -4 -3 -6 -1 -10 4 -10 6 0 11 4 11 10 0 5 6 9 13
7 6 -1 11 4 10 11 -2 6 2 12 7 12 6 0 10 -4 10 -9 0 -12 39 -21 46 -10 3 5 1
9 -3 9 -5 0 -17 6 -27 13 -16 12 -16 13 7 13 14 0 25 -5 24 -10 -1 -6 7 -10
18 -10 13 0 19 5 17 17 -2 11 2 15 12 11 19 -7 3 -44 -19 -44 -7 0 -17 -5 -21
-11 -5 -8 1 -10 19 -5 32 8 57 -1 57 -21 0 -8 5 -11 10 -8 6 3 10 1 10 -4 0
-6 5 -11 12 -11 6 0 3 9 -7 20 -16 18 -14 21 10 20 13 -1 36 31 29 41 -5 8 -9
8 -14 -1 -10 -16 -31 -3 -24 15 8 19 50 -1 57 -26 6 -21 38 -16 33 4 -1 7 -1
9 1 4 3 -4 8 -5 13 -2 5 3 7 -2 6 -12 -2 -9 -11 -20 -22 -25 -18 -7 -18 -8 1
-6 11 2 25 -1 32 -5 7 -5 10 -1 6 11 -6 25 21 45 52 40 31 -6 32 5 3 24 -21
14 -21 15 -3 13 11 -1 30 -7 43 -13 16 -9 28 -10 41 -2 33 17 38 11 6 -9 -20
-12 -32 -14 -37 -7 -4 6 -11 7 -15 2 -4 -5 -2 -11 5 -13 6 -3 10 -9 6 -14 -3
-5 -14 -5 -25 2 -12 6 -23 8 -27 5 -10 -10 6 -18 45 -22 23 -2 33 0 24 5 -8 5
-9 11 -3 15 6 3 17 -1 25 -9 24 -23 33 -18 11 6 -19 22 -19 22 3 10 12 -6 25
-16 28 -21 4 -6 16 -5 33 3 15 7 46 12 70 11 23 -1 45 2 48 7 3 5 -3 6 -12 2
-16 -6 -16 -4 1 19 14 18 22 22 31 14 9 -8 9 -13 0 -19 -7 -6 -6 -7 4 -4 8 2
15 10 15 18 0 7 8 15 18 17 9 2 17 -1 17 -7 0 -6 -4 -11 -10 -11 -5 0 -10 -4
-10 -8 0 -5 6 -9 14 -9 8 0 15 3 14 6 -2 19 4 30 18 35 12 5 15 2 10 -10 -5
-14 -4 -15 8 -5 8 7 12 20 9 29 -4 13 -2 12 10 -3 11 -14 13 -25 5 -39 -7 -14
-6 -22 7 -35 16 -15 17 -14 11 12 -5 22 -3 27 11 27 15 0 16 2 3 10 -8 5 -11
10 -7 10 13 0 57 -32 53 -39 -2 -3 6 -6 19 -6 22 0 22 1 8 17 -8 10 -20 16
-25 15 -6 -1 -13 4 -15 11 -4 11 2 10 25 -2 38 -20 52 -4 25 27 -11 14 -12 17
-2 10 12 -10 18 -10 27 -1 9 9 12 9 12 0 0 -7 -5 -12 -11 -12 -6 0 0 -13 13
-29 l23 -29 22 21 c18 16 25 17 37 8 11 -9 71 -10 71 -1 0 2 10 4 22 5 14 1
20 -2 16 -11 -3 -8 -9 -14 -15 -14 -5 0 -6 5 -3 10 3 6 1 10 -4 10 -16 0 -13
-27 2 -33 14 -5 51 45 41 55 -3 3 2 8 11 11 8 4 15 2 15 -3 0 -15 -4 -25 -11
-23 -3 1 -10 -11 -15 -26 -10 -24 -8 -27 10 -28 12 -1 15 1 9 4 -10 3 -10 10
-2 25 6 11 17 17 25 14 9 -3 12 -1 9 4 -3 6 1 10 9 10 9 0 16 5 16 11 0 6 -8
8 -18 5 -13 -4 -19 -1 -19 9 0 26 26 16 49 -20 13 -19 29 -37 36 -40 8 -3 4 8
-7 24 -27 38 -27 62 0 27 21 -27 68 -59 55 -37 -4 6 0 14 8 17 13 5 13 10 5
27 -11 21 -10 21 7 5 14 -14 15 -22 7 -41 -9 -19 -8 -23 7 -24 28 -2 44 21 25
37 -8 7 -15 18 -15 24 0 7 3 6 8 -2 5 -7 16 -10 25 -6 9 3 15 9 13 13 -2 3 7
7 20 7 13 1 24 -2 24 -7 0 -5 -9 -9 -19 -9 -20 0 -36 -26 -22 -35 5 -3 11 1
14 9 7 17 47 28 48 13 1 -7 1 -15 1 -18 -1 -3 5 -6 12 -6 6 0 13 9 13 19 1 10
-2 16 -6 13 -13 -7 -34 22 -25 36 5 8 2 10 -8 7 -8 -4 -15 -1 -15 6 0 7 6 13
14 13 13 0 17 -10 14 -34 -1 -7 5 -10 13 -7 8 3 17 1 21 -5 3 -6 11 -11 17
-11 6 0 3 9 -7 20 -22 25 -14 37 9 14 13 -12 20 -14 29 -5 6 6 16 11 21 11 6
0 4 -5 -4 -11 -12 -9 -11 -10 5 -6 11 3 29 8 40 12 11 3 7 -2 -10 -11 -16 -10
-37 -18 -45 -19 -8 -1 -24 -6 -35 -13 -18 -10 -17 -11 12 -12 17 0 35 5 38 10
3 6 11 10 17 10 6 0 8 -3 5 -6 -10 -11 12 -44 29 -44 12 0 11 4 -6 18 -19 16
-20 19 -7 30 10 9 17 10 22 2 3 -5 0 -10 -7 -10 -10 0 -9 -3 2 -9 20 -14 32
-3 20 19 -12 23 6 32 34 18 16 -9 18 -7 14 16 -3 15 -1 29 3 32 5 3 9 -9 9
-26 0 -17 7 -38 15 -47 14 -14 14 -17 1 -32 -14 -15 -13 -17 7 -18 17 -2 19 0
7 7 -16 10 -8 14 24 10 11 -1 15 3 12 9 -4 6 -14 11 -22 11 -8 0 -14 4 -14 9
0 5 16 9 35 9 19 0 35 -4 35 -10 0 -5 4 -7 9 -4 5 4 11 3 14 -1 2 -5 2 -3 1 4
-2 7 1 15 6 18 6 4 10 -1 10 -10 0 -11 5 -15 14 -12 8 3 16 1 18 -5 2 -6 13
-13 24 -14 14 -2 10 5 -16 26 -28 23 -32 31 -23 41 10 10 14 8 20 -9 7 -18 10
-19 27 -7 10 8 15 19 10 26 -5 8 -3 10 7 4 30 -19 58 -49 53 -57 -3 -4 0 -8 6
-8 7 0 9 8 5 21 -9 26 -36 59 -45 54 -4 -2 -7 3 -7 11 0 10 8 7 27 -11 24 -23
27 -23 42 -9 11 11 18 12 22 5 4 -6 1 -11 -7 -11 -16 0 -27 -27 -20 -47 8 -22
21 -14 17 10 -2 12 -2 16 2 10 8 -18 27 -16 21 2 -4 8 -1 17 5 21 6 4 8 3 4
-4 -3 -5 0 -13 6 -16 10 -3 8 -9 -5 -20 -18 -14 -17 -15 15 -31 l33 -16 -25
20 c-26 21 -10 30 20 11 9 -5 19 -5 26 1 8 7 15 6 19 -2 4 -6 1 -16 -6 -21
-12 -8 -12 -9 0 -6 24 7 23 23 -5 53 -16 17 -22 31 -15 33 6 2 9 7 7 11 -3 4
5 8 16 8 12 1 25 8 29 15 4 7 11 9 15 6 4 -4 -7 -15 -25 -25 -17 -10 -31 -21
-31 -25 0 -12 14 -9 35 6 20 14 45 11 45 -6 0 -5 -10 -6 -22 -3 -18 5 -19 4
-8 -4 8 -5 11 -13 7 -17 -3 -4 -13 -1 -22 6 -12 10 -15 10 -15 -3 0 -23 17
-29 42 -16 23 13 48 19 78 20 9 0 17 10 17 21 2 15 -1 17 -11 9 -9 -8 -13 -7
-13 4 0 8 4 12 9 9 4 -3 8 1 8 8 0 7 7 2 16 -11 12 -16 19 -20 27 -12 15 15
27 14 27 -4 0 -8 9 -15 21 -15 11 0 18 4 15 8 -2 4 11 8 31 9 19 0 30 -3 24
-6 -6 -4 -9 -15 -5 -24 4 -12 11 -14 27 -8 25 9 67 -3 67 -19 0 -7 6 -8 18 -1
11 6 24 6 37 -1 17 -9 18 -8 8 3 -20 20 -16 27 13 21 14 -2 23 -10 21 -16 -3
-7 4 -12 14 -12 12 0 15 4 9 10 -6 6 -10 15 -10 20 0 6 5 5 11 -1 6 -6 18 -9
25 -6 8 3 14 1 14 -5 0 -6 -6 -13 -12 -15 -10 -4 -10 -6 -1 -6 6 -1 15 4 18 9
3 6 11 10 17 10 6 0 5 -7 -3 -17 -13 -15 -12 -15 9 -2 14 9 21 21 18 32 -2 10
2 21 10 24 11 4 12 9 3 19 -9 11 -9 14 0 14 7 0 9 5 6 11 -4 6 2 5 14 -3 22
-14 28 -28 11 -28 -5 0 -10 -5 -10 -11 0 -5 5 -7 12 -3 8 5 9 2 5 -9 -3 -9 -2
-19 4 -23 6 -4 5 -12 -3 -22 -11 -15 -11 -15 3 -5 9 7 19 11 23 8 3 -3 2 1 -4
7 -13 16 -13 65 0 73 6 4 18 1 27 -6 22 -19 59 -22 75 -5 13 12 16 11 26 -5
17 -27 36 -25 22 2 -7 11 -9 23 -7 26 3 2 8 -5 12 -16 3 -12 9 -19 13 -17 4 2
12 -1 18 -8 8 -9 7 -16 -4 -26 -14 -13 -15 -12 -9 3 8 21 -6 22 -23 2 -10 -12
-9 -15 4 -15 10 0 15 -4 12 -9 -8 -13 -47 -1 -53 16 -3 8 0 19 8 25 10 6 6 7
-11 2 -14 -4 -36 -8 -49 -8 -15 -1 -27 -9 -33 -25 -8 -21 -7 -22 8 -10 10 8
18 13 18 11 1 -2 9 0 19 4 26 10 34 -4 11 -21 -18 -13 -18 -14 3 -12 12 0 19
5 17 9 -3 4 0 8 5 8 6 0 11 -5 11 -10 0 -6 3 -9 8 -9 25 4 34 -2 23 -14 -8
-10 -7 -14 5 -14 8 0 13 8 12 17 -4 21 19 50 39 50 9 0 11 5 7 13 -5 8 -2 7 9
-2 10 -8 20 -11 23 -8 3 3 22 -1 42 -9 33 -13 35 -13 18 0 -10 9 -24 17 -30
19 -6 2 -8 7 -5 11 3 3 22 -5 42 -18 19 -13 38 -22 41 -18 3 3 6 0 6 -6 0 -6
9 -13 19 -17 13 -4 18 -13 16 -31 -1 -13 1 -27 5 -29 4 -3 7 14 6 37 -1 36 2
42 22 43 31 2 38 -13 16 -30 -11 -8 -14 -15 -7 -15 6 0 14 4 18 9 9 15 46 9
40 -7 -3 -7 0 -10 6 -7 13 9 6 30 -11 30 -20 0 -23 22 -5 29 9 3 13 2 10 -4
-3 -6 -1 -10 4 -10 6 0 11 5 11 10 0 6 4 10 10 10 5 0 7 -8 3 -17 -5 -15 -3
-16 8 -5 25 23 -31 51 -59 29 -18 -15 -55 -20 -47 -7 3 5 1 10 -4 10 -17 0
-13 17 5 24 9 3 12 2 8 -5 -4 -7 4 -9 22 -7 15 2 30 9 32 17 3 8 0 11 -7 7 -7
-5 -9 -1 -5 8 4 10 1 16 -9 16 -8 0 -21 7 -28 17 -13 15 -12 15 9 4 18 -10 27
-10 38 0 9 7 14 8 14 1 0 -6 -5 -12 -11 -14 -10 -3 24 -44 65 -76 13 -11 14
-17 5 -28 -6 -8 -19 -14 -28 -14 -13 0 -13 -2 -2 -9 9 -6 21 -2 36 13 l21 21
-34 33 c-19 19 -31 36 -29 39 6 5 22 -6 59 -42 l20 -20 -11 22 c-7 14 -8 24
-1 28 5 3 10 0 10 -8 0 -11 13 -15 55 -15 48 1 54 3 43 16 -10 13 -10 14 0 8
15 -9 15 -5 2 29 -6 16 -6 24 0 20 5 -3 12 -22 16 -41 4 -23 9 -31 14 -23 5 7
7 17 6 23 -2 6 -1 8 1 3 3 -4 9 -4 15 -1 5 3 8 -2 6 -11 -2 -11 4 -19 15 -20
9 -2 17 0 17 4 0 4 12 7 28 8 26 2 26 1 5 -9 -30 -14 -29 -23 1 -23 13 0 24 2
24 5 -2 24 6 28 47 27 36 -1 44 -4 42 -19 -3 -19 -17 -37 -17 -21 0 11 -50 37
-57 29 -6 -6 20 -46 30 -46 4 0 5 4 2 10 -3 6 1 7 10 4 12 -5 13 -10 4 -20 -6
-8 -16 -11 -23 -7 -6 3 -3 -2 6 -12 14 -15 20 -16 32 -6 8 7 12 20 9 28 -4 9
-2 14 3 10 19 -11 15 51 -3 63 -17 11 -17 11 0 6 10 -3 23 -6 28 -6 4 0 6 -7
3 -15 -5 -11 2 -15 26 -15 30 0 31 -1 14 -17 -13 -13 -19 -14 -22 -5 -4 14
-22 17 -22 3 0 -15 32 -22 46 -10 10 8 14 8 14 0 0 -6 4 -11 8 -11 5 0 8 10 8
23 -1 17 4 21 22 20 16 -2 21 1 16 10 -6 9 -4 9 7 1 8 -6 25 -11 39 -11 14 -1
19 1 12 4 -6 3 -9 9 -6 15 3 5 12 1 20 -11 9 -12 22 -18 34 -16 11 2 20 0 20
-6 0 -5 9 -4 19 3 11 7 18 16 15 20 -3 4 2 5 12 1 13 -5 15 -2 9 18 -4 17 -3
20 3 10 5 -7 15 -11 21 -7 7 5 8 1 4 -10 -5 -13 -3 -15 7 -9 8 5 11 4 6 -3 -4
-6 -12 -9 -19 -6 -7 2 -23 -4 -35 -14 -22 -19 -31 -39 -12 -27 6 3 10 2 10 -3
0 -6 7 -13 16 -16 8 -3 12 -2 9 4 -3 6 2 10 12 10 15 0 16 2 3 10 -9 6 -17 5
-22 -3 -6 -9 -8 -9 -8 0 0 23 21 24 54 4 37 -24 46 -26 46 -11 0 6 -9 10 -19
10 -21 0 -36 26 -21 35 6 4 10 0 10 -7 0 -9 3 -9 10 2 8 13 10 13 10 -1 0 -9
6 -21 13 -27 10 -8 13 -6 14 9 1 11 -1 17 -5 15 -4 -3 -9 6 -10 18 -1 14 4 23
13 23 9 0 11 -4 6 -11 -6 -7 -4 -18 5 -30 7 -10 11 -22 9 -26 -2 -4 2 -7 10
-7 8 0 12 4 9 9 -12 19 -13 57 -3 64 8 4 9 3 5 -4 -6 -11 0 -14 22 -11 4 1 6
4 5 8 -1 3 10 7 23 7 13 1 24 -2 24 -7 0 -5 7 -9 15 -9 9 0 12 6 9 18 -5 14
-4 15 5 1 11 -16 10 -37 -2 -56 -5 -7 -4 -13 2 -13 5 0 12 4 16 10 3 5 12 7
20 4 8 -4 12 -10 9 -15 -3 -5 4 -9 15 -9 25 0 39 20 14 20 -28 1 -68 26 -54
34 8 5 8 13 1 26 -7 13 -7 21 0 25 5 3 11 -3 11 -14 1 -12 2 -27 3 -33 1 -7 4
-16 9 -19 12 -9 67 2 61 12 -3 5 2 9 10 9 13 0 14 -3 4 -19 -9 -15 -9 -23 1
-34 9 -12 9 -16 -1 -20 -7 -2 -10 -8 -6 -12 4 -4 14 -3 22 4 8 7 16 8 18 2 1
-5 18 -11 36 -14 18 -3 30 -1 26 4 -3 5 -13 9 -22 9 -26 1 -48 22 -49 50 -2
19 0 21 7 10 5 -8 10 -11 10 -7 0 4 8 3 18 -2 13 -7 22 -7 29 0 5 5 17 7 27 3
15 -6 15 -8 -3 -21 -18 -12 -24 -12 -46 3 -21 14 -25 14 -25 1 0 -9 16 -19 40
-25 22 -5 38 -6 35 -2 -7 11 22 21 39 14 14 -5 16 -28 3 -40 -4 -4 -7 -12 -7
-17 0 -6 3 -8 6 -5 3 4 19 2 36 -2 25 -8 28 -7 18 5 -6 8 -19 11 -27 8 -11 -5
-14 -3 -9 6 5 7 17 10 28 8 25 -7 89 24 83 40 -5 15 23 6 46 -14 15 -12 16
-11 13 14 -2 15 -1 22 2 15 8 -18 24 -5 24 21 0 18 2 19 10 7 6 -10 4 -20 -6
-31 -16 -18 -18 -45 -4 -54 6 -4 10 6 10 22 0 19 3 24 9 14 11 -17 19 -3 17
32 -2 29 13 39 16 10 0 -10 2 -23 2 -30 2 -19 13 -25 35 -18 12 4 18 12 14 21
-5 13 -7 13 -17 -1 -9 -13 -11 -11 -13 11 0 15 2 23 5 18 9 -13 38 -11 35 2
-1 5 9 10 22 10 13 0 21 -4 19 -8 -3 -4 -11 -8 -19 -8 -8 0 -16 -4 -19 -9 -8
-13 4 -42 15 -36 4 3 6 12 2 20 -4 11 -1 13 11 9 10 -4 15 -12 12 -19 -7 -19
4 -26 19 -12 9 9 9 14 -2 25 -20 20 -11 24 19 10 24 -11 24 -14 11 -34 -10
-15 -11 -24 -3 -29 6 -3 9 -1 8 7 -2 7 4 13 12 12 10 -1 16 9 17 28 3 47 6 58
15 58 11 0 10 -7 -2 -30 -13 -24 6 -40 43 -36 21 3 27 0 23 -11 -4 -9 -1 -13
6 -10 7 2 12 11 12 20 -1 9 1 15 5 13 4 -3 13 -1 21 5 10 6 11 9 3 9 -7 0 -13
5 -13 11 0 8 5 7 15 -1 9 -7 14 -19 11 -26 -8 -21 7 -24 41 -8 29 15 33 14 56
-7 25 -20 25 -23 8 -38 -9 -9 -10 -11 -2 -6 10 7 15 6 18 -2 4 -10 7 -10 17
-1 10 10 8 17 -10 37 -25 27 -24 42 0 22 8 -7 28 -12 43 -11 42 3 50 0 30 -11
-9 -6 -27 -7 -40 -4 -21 7 -22 7 -2 -7 24 -17 68 -22 59 -6 -5 7 0 9 14 6 12
-4 26 0 33 8 14 17 39 19 39 3 0 -6 -7 -9 -15 -6 -8 4 -17 2 -20 -3 -6 -9 8
-14 28 -11 4 0 7 -4 7 -10 0 -5 5 -7 10 -4 6 4 7 11 4 17 -4 7 -2 8 5 4 6 -4
18 -2 26 4 11 9 15 9 15 1 0 -6 -5 -11 -11 -11 -5 0 -8 -4 -4 -10 3 -5 12 -7
20 -4 8 4 12 10 9 15 -3 5 2 9 11 9 9 0 13 5 10 10 -3 6 -1 10 4 10 14 0 14
-17 1 -25 -13 -8 20 -54 40 -54 10 0 7 6 -10 21 -16 14 -21 22 -12 25 6 3 12
12 12 20 0 12 4 11 19 -6 20 -23 57 -35 65 -22 3 5 -7 14 -22 21 -15 7 -22 15
-15 17 17 6 52 -28 45 -45 -3 -9 -1 -13 5 -9 5 4 15 -5 21 -18 7 -14 17 -25
24 -25 9 0 8 3 -2 10 -8 5 -11 10 -7 10 4 0 3 9 -2 19 -8 14 -7 20 4 25 8 3
15 1 15 -4 0 -5 14 -7 30 -5 17 2 30 -1 30 -6 0 -5 -5 -9 -12 -9 -9 0 -9 -3 0
-12 9 -9 15 -8 26 7 13 18 14 18 41 -3 15 -12 32 -19 38 -15 6 4 3 10 -9 14
-14 6 -11 7 11 5 17 -2 38 1 48 6 13 6 17 5 17 -7 0 -9 -4 -13 -10 -10 -5 3
-10 1 -10 -4 0 -6 16 -10 35 -8 35 2 35 2 15 19 -24 19 -25 28 -5 28 8 0 15
-3 15 -8 0 -4 9 -13 20 -19 16 -11 18 -10 14 1 -3 8 0 17 7 22 8 4 10 3 5 -4
-9 -15 -5 -15 29 -2 14 5 24 14 21 18 -6 10 25 9 42 -2 6 -4 12 -13 12 -19 0
-7 -7 -4 -14 6 -11 14 -15 15 -25 3 -9 -10 -7 -17 6 -27 11 -9 14 -10 9 -1 -4
6 -3 12 3 12 15 0 21 -14 11 -30 -7 -11 -11 -11 -24 -1 -19 16 -22 5 -3 -12
15 -14 37 -20 36 -10 -4 25 3 34 24 31 23 -3 32 -37 12 -50 -6 -5 -6 -8 2 -8
7 0 16 7 21 16 8 14 10 14 25 0 21 -21 26 -20 20 3 -3 11 2 21 11 24 9 4 16 2
16 -2 0 -5 -6 -12 -12 -14 -10 -4 -9 -6 1 -6 11 -1 11 -4 1 -16 -7 -9 -10 -19
-6 -23 4 -4 12 1 17 11 6 9 15 15 20 11 5 -3 8 0 7 8 -2 8 4 12 16 10 10 -2
15 1 11 7 -4 7 0 8 11 4 15 -6 15 -7 -2 -21 -15 -12 -16 -14 -2 -9 9 3 19 1
22 -6 3 -7 4 -4 3 5 -1 9 1 17 6 17 23 2 27 -1 27 -20 0 -11 4 -17 10 -14 5 3
10 -1 10 -9 0 -9 5 -16 11 -16 14 0 -15 48 -43 72 -20 18 -20 18 3 27 14 5 25
5 27 0 2 -5 8 -9 14 -9 6 0 8 6 5 13 -7 19 23 17 53 -3 14 -9 39 -17 55 -17
l30 -1 -32 14 c-33 14 -44 24 -20 20 27 -6 53 -21 70 -40 15 -17 21 -18 38 -7
12 7 24 10 27 7 3 -3 0 -6 -7 -6 -7 0 -10 -4 -6 -10 3 -5 13 -6 22 -3 11 4 14
2 11 -8 -3 -8 -17 -14 -31 -14 -15 1 -27 -3 -27 -7 0 -4 6 -8 13 -8 8 0 7 -4
-3 -10 -8 -5 -24 -7 -35 -4 -18 5 -18 4 -2 -6 14 -9 25 -7 51 10 26 15 35 17
39 8 3 -7 6 -4 6 7 1 12 6 26 13 33 9 9 9 15 0 24 -7 7 -12 19 -11 28 0 10 4
7 11 -7 6 -13 14 -23 19 -23 4 0 5 -9 2 -20 -4 -15 0 -20 13 -20 25 1 52 22
47 38 -3 6 -1 12 4 12 5 0 9 -9 10 -20 1 -11 -2 -20 -8 -20 -5 0 -8 -10 -8
-22 1 -18 2 -19 6 -5 3 13 8 15 17 8 9 -8 12 -3 10 19 -1 18 3 28 10 27 6 -1
10 4 8 11 -1 8 2 11 8 7 8 -5 5 -14 -7 -27 -12 -15 -14 -22 -6 -25 7 -2 9 -11
6 -19 -3 -8 3 -17 12 -21 19 -6 50 8 50 23 0 5 4 15 9 22 12 20 0 25 -17 7 -9
-8 -14 -23 -11 -33 5 -13 4 -14 -4 -3 -8 11 -10 11 -14 0 -3 -8 -5 2 -5 21 0
19 2 29 5 22 3 -10 8 -9 23 4 10 9 16 20 14 24 -3 4 2 13 9 19 12 10 13 8 9
-8 -3 -13 -1 -21 7 -21 9 0 8 -7 -4 -25 -14 -21 -14 -24 -1 -19 8 4 15 11 15
17 0 23 32 -21 33 -46 2 -21 6 -24 29 -21 15 1 34 -4 42 -12 9 -9 17 -10 21
-4 3 6 -1 13 -9 16 -9 3 -16 13 -16 22 0 13 -3 13 -19 -2 -12 -11 -21 -14 -26
-7 -6 11 -5 13 18 15 6 0 12 12 13 26 2 43 4 47 24 45 31 -2 37 -15 7 -15 -15
0 -27 -3 -27 -8 0 -4 18 -7 40 -7 40 1 52 -8 26 -18 -7 -3 -18 -1 -24 5 -6 6
-15 7 -21 4 -16 -10 -13 -26 3 -20 18 7 32 -12 35 -51 1 -17 31 -21 31 -4 0 5
-4 8 -9 5 -5 -3 -12 1 -15 10 -4 12 -2 15 9 11 8 -4 17 -2 20 4 4 5 3 9 -2 8
-20 -4 -34 2 -28 12 4 6 10 8 13 5 3 -3 14 1 24 11 10 9 18 11 18 5 0 -6 -6
-13 -12 -15 -10 -4 -10 -6 0 -6 7 -1 10 -6 6 -12 -4 -7 -1 -10 7 -7 8 3 13 11
11 18 -3 11 0 11 12 1 12 -10 16 -9 25 6 9 16 10 14 9 -9 -1 -15 -5 -25 -9
-22 -4 2 -21 1 -39 -2 -21 -5 -27 -9 -19 -15 7 -4 21 -3 30 2 12 6 22 4 33 -6
17 -17 30 -20 21 -5 -3 6 -2 10 4 10 5 0 12 -6 14 -12 4 -10 6 -10 6 0 1 14
31 17 31 2 0 -5 -4 -10 -10 -10 -5 0 -10 -4 -10 -10 0 -18 17 -10 27 12 8 18
6 26 -11 40 -12 10 -16 18 -11 17 6 -1 17 -1 25 0 13 1 13 2 0 12 -13 9 -13
10 0 6 8 -2 15 -10 15 -18 0 -8 10 -15 23 -17 12 -2 22 -8 22 -13 0 -6 -9 -7
-22 -3 -21 6 -22 6 -7 -17 22 -32 74 -34 74 -2 1 23 14 44 16 25 1 -7 2 -17 3
-24 1 -15 23 -22 31 -9 3 6 15 11 26 11 16 0 19 5 15 23 -3 12 -3 17 0 10 3
-7 12 -9 20 -6 29 11 3 -23 -31 -41 -19 -11 -34 -21 -32 -23 4 -3 69 27 77 36
8 10 52 12 46 2 -4 -5 -2 -20 3 -33 4 -12 5 -33 0 -45 -5 -13 -4 -25 2 -28 5
-4 8 -1 7 7 -2 7 3 12 11 10 11 -2 12 0 3 11 -9 10 -9 16 0 25 9 9 9 12 -3 12
-12 0 -12 2 1 10 10 6 11 10 3 10 -7 0 -13 6 -13 13 1 6 10 1 21 -12 11 -13
18 -30 15 -36 -2 -6 2 -12 9 -12 9 0 10 8 4 31 -5 17 -9 32 -9 33 0 1 7 0 15
-3 9 -4 14 -13 13 -21 -2 -9 6 -17 17 -19 15 -2 21 2 21 17 0 11 -5 18 -12 15
-20 -8 -40 22 -25 37 10 9 11 8 5 -6 -3 -10 -3 -17 2 -15 5 1 20 -2 33 -6 18
-6 21 -10 10 -17 -10 -6 -8 -9 10 -9 13 0 21 3 18 7 -7 7 22 32 38 32 6 0 2
-4 -7 -10 -10 -5 -18 -17 -18 -26 0 -13 3 -13 15 -3 11 9 15 9 15 1 0 -7 11
-9 31 -6 26 5 28 3 17 -9 -7 -7 -15 -11 -18 -7 -3 3 -16 7 -29 9 -18 2 -22 -2
-17 -14 3 -9 9 -27 12 -40 5 -20 9 -22 20 -13 8 6 14 16 14 21 0 22 31 39 67
36 33 -3 38 0 36 17 -1 11 0 14 3 8 8 -18 27 -16 20 2 -3 8 -1 15 4 15 6 0 10
-8 10 -19 0 -19 -24 -31 -73 -36 -16 -1 -36 -9 -44 -18 -14 -14 -14 -17 1 -32
15 -15 16 -15 14 7 -3 18 2 24 25 26 15 2 27 -2 27 -8 0 -14 21 -36 35 -35 6
0 16 4 23 8 7 5 19 2 28 -7 21 -22 31 -20 12 2 -13 15 -13 19 2 32 9 8 24 16
34 17 16 1 15 -1 -3 -18 -17 -16 -19 -24 -11 -39 12 -23 30 -35 30 -20 0 12
39 -5 53 -24 5 -6 6 -3 2 9 -4 11 -8 33 -10 50 -3 29 -3 29 14 10 24 -29 40
-29 36 0 -3 33 11 22 18 -14 5 -22 11 -28 31 -28 14 -1 23 3 20 8 -3 5 -14 9
-25 9 -24 0 -23 31 1 37 13 4 13 3 0 -6 -13 -9 -12 -11 5 -11 11 0 27 -9 35
-20 8 -11 24 -20 35 -20 17 1 16 3 -7 16 -18 9 -28 23 -28 37 0 16 -3 18 -9 9
-6 -11 -10 -10 -15 3 -3 10 -12 15 -21 11 -22 -8 -18 2 5 14 16 8 20 8 18 -2
-2 -8 6 -12 25 -10 15 2 27 -1 27 -7 0 -6 -4 -11 -10 -11 -16 0 -11 -14 10
-27 17 -11 19 -10 14 5 -3 9 2 5 11 -10 8 -16 17 -28 18 -28 7 0 4 40 -3 45
-11 7 -2 35 12 35 5 0 6 -5 3 -11 -9 -13 24 -45 45 -44 8 0 19 -4 23 -10 5 -6
7 -4 5 5 -3 8 -15 17 -28 20 -13 3 -25 11 -28 19 -3 9 3 9 26 -3 19 -10 33
-12 37 -6 3 6 12 10 18 9 9 0 9 -2 0 -6 -7 -2 -13 -9 -13 -14 0 -6 5 -7 12 -3
6 4 8 3 5 -4 -9 -14 3 -43 14 -36 5 3 9 0 9 -5 0 -6 -4 -11 -10 -11 -5 0 -10
-3 -10 -7 0 -17 62 -7 76 12 14 20 15 19 20 -2 4 -13 13 -21 24 -20 10 1 17 4
14 8 -2 4 3 12 11 19 12 10 13 8 10 -11 -2 -12 0 -29 6 -38 9 -14 10 -14 5 2
-4 13 1 17 22 17 25 1 26 2 9 14 -16 13 -16 14 4 19 11 3 19 9 16 14 -3 4 1
14 9 21 17 15 17 12 4 -23 -7 -17 -7 -24 0 -20 6 3 10 1 10 -5 0 -6 4 -9 10
-5 5 3 7 12 4 19 -3 8 -1 17 5 21 7 4 8 0 4 -11 -5 -12 -3 -15 6 -9 10 6 11 3
2 -14 -8 -14 -8 -21 -1 -21 6 0 13 6 16 13 3 8 11 14 19 14 18 0 20 -14 3 -20
-7 -2 -1 -4 13 -3 17 1 25 6 22 14 -3 6 0 12 6 12 14 0 15 -37 1 -45 -13 -8
-13 -25 1 -25 5 0 8 4 5 9 -3 5 1 14 9 21 8 7 13 16 10 19 -2 4 2 8 10 8 19 0
19 -5 0 -23 -25 -25 -17 -36 13 -17 27 17 27 17 12 -2 -14 -20 -14 -20 8 -1
22 19 22 19 22 -2 0 -11 -10 -28 -22 -36 -12 -9 -18 -16 -13 -16 14 1 45 26
45 37 0 5 6 18 14 29 10 13 14 14 13 4 -2 -8 -5 -19 -9 -25 -3 -5 0 -16 8 -22
8 -8 15 -9 19 -3 4 6 11 8 16 5 5 -4 2 -13 -6 -21 -8 -9 -12 -21 -8 -27 5 -8
8 -7 11 2 3 8 8 7 18 -6 11 -13 14 -14 12 -3 -2 8 2 14 9 13 7 -2 10 4 6 13
-5 13 -7 13 -14 2 -5 -7 -7 5 -6 31 1 23 3 38 5 32 2 -6 8 -8 14 -5 5 3 8 -2
6 -12 -2 -16 25 -69 36 -69 2 0 14 9 27 20 20 18 22 18 16 2 -4 -11 -3 -16 4
-12 5 4 7 16 3 27 -5 17 -3 19 18 13 15 -4 19 -3 10 3 -11 7 -9 10 7 15 12 3
24 0 27 -5 4 -6 13 1 21 16 7 14 19 26 25 26 9 0 9 -3 0 -12 -15 -15 -16 -31
0 -22 8 5 9 2 5 -9 -3 -10 -2 -17 3 -17 10 0 14 13 11 36 -1 6 6 17 14 24 10
9 15 9 15 1 0 -6 -6 -11 -12 -11 -10 0 -9 -3 1 -9 11 -7 10 -14 -5 -37 -18
-27 -18 -28 -1 -21 13 5 17 3 14 -5 -2 -7 -9 -12 -13 -11 -5 1 -20 -7 -33 -16
-18 -14 -21 -20 -11 -26 9 -5 11 -4 6 3 -4 7 -1 12 8 12 9 0 16 4 16 10 0 5 7
7 15 4 9 -4 15 -1 15 7 0 10 3 10 11 2 14 -14 1 -36 -17 -29 -8 3 -14 1 -14
-4 0 -5 15 -8 33 -8 17 1 26 3 19 5 -6 3 -10 9 -7 14 3 4 -2 20 -11 34 -20 30
-10 47 11 19 13 -16 14 -16 9 -1 -5 13 -2 16 11 11 9 -4 15 -14 12 -23 -3 -11
3 -16 20 -17 12 -1 20 2 17 7 -3 5 6 5 20 -1 21 -7 26 -6 26 5 0 9 -10 15 -26
15 -17 0 -23 4 -18 13 6 9 4 9 -8 -1 -10 -8 -18 -9 -22 -3 -4 6 3 15 14 21 14
8 20 8 20 0 0 -6 13 -16 29 -21 31 -11 44 -38 30 -60 -7 -12 -9 -12 -9 0 0 8
-3 12 -6 9 -3 -3 0 -15 8 -27 14 -22 55 -25 55 -4 0 16 -14 17 -19 1 -3 -7
-10 -8 -17 -4 -9 6 -7 13 8 28 17 15 19 23 11 38 -5 10 -10 25 -10 32 0 7 7 0
15 -16 9 -16 14 -35 11 -41 -5 -13 14 -39 32 -42 17 -4 15 14 -3 21 -8 3 -12
12 -9 21 3 8 11 12 16 9 6 -4 5 -10 -3 -16 -11 -8 -11 -9 1 -5 8 2 14 11 14
20 -1 9 3 14 8 11 5 -3 8 2 6 11 -2 11 4 19 15 20 20 4 23 -11 5 -18 -10 -4
-10 -6 0 -6 7 -1 10 -5 7 -11 -3 -5 1 -10 9 -10 9 0 16 -5 16 -10 0 -7 -6 -7
-17 -2 -20 10 -43 5 -43 -9 0 -5 17 -8 38 -5 44 5 76 -8 53 -23 -9 -6 -10 -11
-2 -15 6 -4 11 -2 11 4 0 6 5 8 11 4 8 -4 8 -9 0 -17 -15 -15 -14 -24 2 -24
15 0 20 34 6 42 -5 4 -9 11 -9 16 0 6 5 7 12 3 7 -4 8 -3 4 5 -4 6 -11 9 -16
6 -4 -3 -11 2 -14 10 -5 13 -2 14 17 4 12 -7 29 -20 37 -30 14 -15 18 -15 35
-2 20 15 20 15 -2 9 -12 -4 -24 -3 -26 1 -3 5 10 9 28 9 35 0 41 -12 15 -33
-9 -8 -11 -12 -3 -13 18 0 43 11 39 19 -2 3 7 7 20 7 13 1 24 -2 24 -7 0 -5
-3 -8 -7 -7 -5 1 -18 -1 -30 -5 -19 -7 -21 -11 -11 -40 14 -43 31 -59 51 -51
15 5 15 9 5 22 -11 13 -10 15 4 9 10 -3 20 -2 23 3 4 6 1 10 -5 10 -6 0 -8 5
-4 11 4 7 9 7 13 1 3 -5 17 -8 31 -7 19 1 25 7 24 23 -1 12 3 19 7 16 5 -3 9
-1 9 5 0 5 -6 12 -12 14 -9 4 -8 6 3 6 21 1 56 -41 53 -63 -5 -33 -22 -41 -44
-21 -15 14 -20 15 -20 4 0 -11 -2 -11 -11 1 -7 10 -9 11 -7 2 2 -8 7 -13 12
-12 5 1 12 -3 16 -10 9 -15 43 -20 51 -8 4 7 9 7 12 1 4 -6 -3 -20 -15 -32
-16 -18 -18 -25 -8 -34 9 -9 11 -8 8 3 -2 8 2 14 9 13 7 -2 10 3 7 11 -3 8 -1
17 5 21 6 3 11 1 11 -5 0 -6 8 -10 18 -9 9 1 24 1 32 0 13 -1 13 -2 0 -11 -11
-7 -7 -8 15 -6 17 1 38 -1 47 -6 19 -9 14 -38 -7 -38 -28 0 -22 -15 7 -16 20
-1 25 2 16 7 -12 8 -4 13 15 10 4 -1 3 7 -2 18 -6 10 -7 21 -4 25 3 3 -1 6
-10 6 -9 0 -17 5 -17 10 0 7 -7 7 -20 0 -16 -9 -22 -8 -26 5 -9 22 5 33 17 15
9 -13 10 -12 5 2 -3 10 -1 20 4 23 6 4 10 1 10 -5 0 -14 25 -40 38 -40 5 0 15
7 22 15 9 11 24 14 51 10 39 -6 48 2 28 22 -9 9 -7 11 7 8 19 -3 20 -7 9 -37
-5 -13 -2 -16 17 -14 12 1 31 6 41 10 16 8 17 68 17 1067 l0 1059 -7680 0
-7681 0 1 -1120z m8235 -170 c3 -5 1 -10 -4 -10 -6 0 -11 5 -11 10 0 6 2 10 4
10 3 0 8 -4 11 -10z m-70 -20 c-3 -5 -12 -10 -18 -10 -7 0 -6 4 3 10 19 12 23
12 15 0z m1120 -8 c-3 -3 -11 0 -18 7 -9 10 -8 11 6 5 10 -3 15 -9 12 -12z
m-2025 -2 c0 -5 -5 -10 -11 -10 -5 0 -7 5 -4 10 3 6 8 10 11 10 2 0 4 -4 4
-10z m1230 6 c0 -2 -7 -7 -16 -10 -8 -3 -12 -2 -9 4 6 10 25 14 25 6z m673
-13 c-3 -7 -6 -13 -8 -13 -2 0 -5 6 -8 13 -3 8 1 14 8 14 7 0 11 -6 8 -14z
m-1204 -56 c11 -16 10 -17 -8 -8 -11 6 -27 19 -37 28 -10 10 -21 19 -26 19
-18 3 -19 4 -13 13 7 12 68 -26 84 -52z m-871 18 c-3 -3 -9 2 -12 12 -6 14 -5
15 5 6 7 -7 10 -15 7 -18z m262 10 c0 -8 -2 -15 -4 -15 -2 0 -6 7 -10 15 -3 8
-1 15 4 15 6 0 10 -7 10 -15z m630 5 c8 -5 11 -10 5 -10 -5 0 -17 5 -25 10 -8
5 -10 10 -5 10 6 0 17 -5 25 -10z m277 -12 c-3 -8 -6 -5 -6 6 -1 11 2 17 5 13
3 -3 4 -12 1 -19z m253 16 c0 -8 -19 -13 -24 -6 -3 5 1 9 9 9 8 0 15 -2 15 -3z
m620 -9 c0 -2 -6 -5 -13 -8 -8 -3 -14 1 -14 8 0 7 6 11 14 8 7 -3 13 -6 13 -8z
m186 2 c8 3 14 3 14 0 0 -14 -30 -14 -41 1 -11 14 -11 15 0 5 7 -6 20 -9 27
-6z m94 9 c0 -3 -4 -8 -10 -11 -5 -3 -10 -1 -10 4 0 6 5 11 10 11 6 0 10 -2
10 -4z m110 -32 c0 -2 -13 2 -30 11 -16 9 -30 18 -30 21 0 2 14 -2 30 -11 17
-9 30 -18 30 -21z m67 21 c0 -8 -4 -12 -9 -9 -5 3 -6 10 -3 15 9 13 12 11 12
-6z m323 0 c0 -12 -19 -12 -23 0 -4 9 -1 12 9 8 7 -3 14 -7 14 -8z m-2749 -9
c5 3 9 1 9 -4 0 -11 -30 -25 -38 -17 -3 3 0 5 6 5 6 0 10 6 8 13 -1 6 -1 9 1
4 3 -4 9 -5 14 -1z m1049 10 c0 -2 -7 -7 -16 -10 -8 -3 -12 -2 -9 4 6 10 25
14 25 6z m260 -6 c0 -5 -2 -10 -4 -10 -3 0 -8 5 -11 10 -3 6 -1 10 4 10 6 0
11 -4 11 -10z m271 -17 c-8 -15 -10 -15 -11 -2 0 17 10 32 18 25 2 -3 -1 -13
-7 -23z m472 14 c3 -8 2 -20 -3 -26 -5 -9 -7 -4 -7 13 0 29 2 32 10 13z
m-2648 -7 c3 -6 -1 -7 -9 -4 -18 7 -21 14 -7 14 6 0 13 -4 16 -10z m255 -16
c6 -14 14 -22 20 -19 5 3 10 1 10 -6 0 -10 3 -10 12 -1 7 7 16 12 21 12 5 0 2
-7 -7 -15 -12 -12 -20 -13 -40 -3 -14 6 -26 14 -27 17 0 3 -2 14 -4 24 -5 25
4 21 15 -9z m55 16 c3 -5 1 -10 -4 -10 -6 0 -11 5 -11 10 0 6 2 10 4 10 3 0 8
-4 11 -10z m555 6 c0 -3 -4 -8 -10 -11 -5 -3 -10 -1 -10 4 0 6 5 11 10 11 6 0
10 -2 10 -4z m210 -11 c-7 -9 -15 -13 -19 -10 -3 3 1 10 9 15 21 14 24 12 10
-5z m109 -12 c-12 -15 -12 -16 4 -10 9 3 17 2 17 -4 0 -6 7 -6 20 1 14 7 20 7
20 0 0 -10 -20 -14 -47 -11 -7 1 -13 -4 -14 -11 0 -7 -5 -2 -10 11 -9 22 6 59
19 46 3 -2 -1 -12 -9 -22z m61 22 c0 -2 -6 -8 -13 -14 -10 -8 -14 -7 -14 2 0
8 6 14 14 14 7 0 13 -1 13 -2z m509 -8 c8 -10 7 -14 -2 -14 -8 0 -14 6 -14 14
0 7 1 13 2 13 2 0 8 -6 14 -13z m1146 -5 c-3 -3 -11 0 -18 7 -9 10 -8 11 6 5
10 -3 15 -9 12 -12z m-2144 -6 c13 8 10 -8 -6 -30 -13 -17 -14 -15 -13 15 1
19 3 28 5 21 3 -6 9 -10 14 -6z m849 9 c0 -7 -30 -13 -34 -7 -3 4 4 9 15 9 10
1 19 0 19 -2z m349 -11 c4 3 13 1 20 -3 9 -6 6 -10 -11 -13 -19 -3 -24 0 -25
16 -1 12 1 15 4 8 3 -6 8 -10 12 -8z m180 7 c10 -7 7 -9 -12 -8 -14 1 -23 5
-20 10 6 9 15 9 32 -2z m385 -15 c-8 -21 -18 -20 -35 1 -8 9 -9 14 -4 11 6 -4
17 -3 25 2 18 11 22 7 14 -14z m-3579 -4 c-3 -3 -11 0 -18 7 -9 10 -8 11 6 5
10 -3 15 -9 12 -12z m880 -2 c-4 -12 -2 -27 4 -33 6 -8 6 -18 0 -27 -8 -13
-13 -11 -29 9 -11 13 -20 28 -20 35 0 6 4 4 10 -4 7 -11 11 -9 19 13 12 31 26
37 16 7z m365 10 c0 -5 -7 -10 -16 -10 -8 0 -12 5 -9 10 3 6 10 10 16 10 5 0
9 -4 9 -10z m856 -5 c-7 -18 3 -45 16 -45 5 0 6 5 3 10 -9 15 14 40 31 33 8
-3 14 0 14 6 0 6 5 11 11 11 21 0 -13 -30 -35 -31 -11 0 -16 -3 -9 -5 16 -7 5
-34 -13 -34 -8 0 -17 7 -20 15 -4 8 -10 12 -15 9 -12 -7 -7 16 6 33 14 17 18
16 11 -2z m619 -3 c-3 -3 -11 0 -18 7 -9 10 -8 11 6 5 10 -3 15 -9 12 -12z
m56 0 c-7 -2 -20 -13 -29 -23 -9 -10 -19 -16 -23 -13 -9 5 21 39 42 46 8 3 16
3 19 0 3 -2 -1 -7 -9 -10z m189 8 c0 -5 -5 -10 -11 -10 -5 0 -7 5 -4 10 3 6 8
10 11 10 2 0 4 -4 4 -10z m424 -5 c-4 -8 -10 -15 -15 -15 -4 0 -6 7 -3 15 4 8
10 15 15 15 4 0 6 -7 3 -15z m101 5 c3 -5 2 -10 -4 -10 -5 0 -13 5 -16 10 -3
6 -2 10 4 10 5 0 13 -4 16 -10z m635 4 c0 -8 -19 -13 -24 -6 -3 5 1 9 9 9 8 0
15 -2 15 -3z m620 -4 c0 -5 -5 -10 -11 -10 -5 0 -7 5 -4 10 3 6 8 10 11 10 2
0 4 -4 4 -10z m-4420 -36 c-7 -7 -17 -11 -23 -7 -8 5 -7 8 1 11 10 3 10 7 0
20 -12 14 -10 14 10 3 19 -10 21 -15 12 -27z m671 18 c-7 -2 -18 1 -23 6 -8 8
-4 9 13 5 13 -4 18 -8 10 -11z m702 -25 c4 3 7 1 7 -5 0 -13 -19 -16 -35 -4
-6 4 -12 18 -13 32 l-1 24 18 -27 c10 -15 21 -24 24 -20z m513 28 c-3 -23 -12
-26 -13 -5 -1 11 2 20 7 20 4 0 7 -7 6 -15z m414 -6 c0 -4 -7 -6 -15 -3 -8 4
-15 10 -15 15 0 4 7 6 15 3 8 -4 15 -10 15 -15z m1360 13 c0 -5 -7 -9 -15 -9
-8 0 -12 4 -9 9 3 4 9 8 15 8 5 0 9 -4 9 -8z m820 -15 c11 -4 10 -6 -4 -6 -15
-1 -16 -4 -6 -16 9 -10 9 -15 1 -15 -6 0 -11 3 -12 8 0 4 -2 18 -5 32 -2 14
-1 20 3 14 5 -6 15 -14 23 -17z m-4225 3 c-3 -5 -12 -10 -18 -10 -7 0 -6 4 3
10 19 12 23 12 15 0z m23 -27 c0 -26 -3 -32 -9 -22 -7 13 -2 59 6 59 2 0 3
-17 3 -37z m40 12 c-3 -3 -9 2 -12 12 -6 14 -5 15 5 6 7 -7 10 -15 7 -18z m96
13 c-3 -4 -11 -5 -19 -1 -21 7 -19 12 4 10 11 0 18 -5 15 -9z m206 8 c0 -11
-19 -15 -25 -6 -3 5 1 10 9 10 9 0 16 -2 16 -4z m465 -16 c-10 -11 -22 -17
-28 -13 -5 3 1 12 14 19 33 18 35 17 14 -6z m3745 5 c-7 -9 -15 -13 -19 -10
-3 3 1 10 9 15 21 14 24 12 10 -5z m-4740 -20 c0 -15 -21 -12 -30 5 -11 20
-10 21 9 10 12 -6 21 -13 21 -15z m1640 15 c-8 -5 -22 -10 -30 -10 -13 0 -13
1 0 10 8 5 22 10 30 10 13 0 13 -1 0 -10z m720 -10 c-13 -8 -13 -10 0 -10 10
0 11 -3 3 -11 -20 -20 -36 1 -17 22 9 11 20 17 23 14 3 -4 -1 -10 -9 -15z
m1550 8 c0 -4 -4 -8 -9 -8 -6 0 -12 4 -15 8 -3 5 1 9 9 9 8 0 15 -4 15 -9z
m363 -2 c10 3 17 1 17 -6 0 -6 -4 -8 -10 -5 -5 3 -10 2 -10 -3 0 -19 -26 -8
-28 12 -1 14 2 17 7 8 4 -7 15 -10 24 -6z m257 -3 c0 -10 -4 -14 -8 -8 -4 6
-11 13 -16 18 -5 4 -2 7 7 7 10 0 17 -8 17 -17z m37 -5 c2 -18 0 -20 -7 -8
-12 18 -13 30 -2 30 4 0 9 -10 9 -22z m-4822 -27 c-3 -5 -1 -12 5 -16 13 -8
13 -35 -1 -35 -5 0 -7 5 -4 10 3 6 2 10 -4 10 -5 0 -11 -6 -14 -12 -3 -10 -7
-10 -17 -1 -10 9 -16 8 -28 -3 -8 -8 -19 -13 -26 -11 -14 5 -17 45 -3 54 6 3
7 1 3 -5 -4 -7 -1 -12 6 -13 10 0 10 -2 1 -6 -7 -2 -13 -9 -13 -15 0 -6 6 -5
15 2 9 7 14 18 11 25 -2 6 5 17 15 23 10 7 19 8 19 3 0 -5 -6 -11 -12 -13 -9
-3 -8 -9 5 -22 9 -10 18 -15 18 -12 2 8 6 42 8 64 2 16 2 16 12 -1 5 -9 8 -21
4 -26z m1155 29 c0 -5 -2 -10 -4 -10 -3 0 -8 5 -11 10 -3 6 -1 10 4 10 6 0 11
-4 11 -10z m983 -4 c4 -10 0 -12 -14 -9 -10 3 -16 9 -13 14 8 13 21 11 27 -5z
m1887 2 c0 -5 5 -6 10 -3 6 3 10 1 10 -4 0 -15 -12 -14 -34 2 -16 12 -16 14
-2 14 9 0 16 -4 16 -9z m-4300 -6 c0 -5 -7 -9 -15 -9 -8 0 -12 4 -9 9 3 4 9 8
15 8 5 0 9 -4 9 -8z m776 -10 c-10 -16 -43 -21 -43 -6 0 7 3 11 7 9 3 -2 12 0
20 5 16 10 25 6 16 -8z m-1502 -1 c3 -4 -4 -7 -14 -6 -27 2 -33 10 -10 12 11
1 22 -2 24 -6z m507 -9 c-7 -2 -18 1 -23 6 -8 8 -4 9 13 5 13 -4 18 -8 10 -11z
m76 -7 c-15 -16 -19 -13 -11 9 3 9 10 13 15 10 5 -3 3 -11 -4 -19z m506 10
c-3 -9 -8 -14 -10 -11 -3 3 -2 9 2 15 9 16 15 13 8 -4z m317 11 c0 -3 -4 -8
-10 -11 -5 -3 -10 -1 -10 4 0 6 5 11 10 11 6 0 10 -2 10 -4z m3654 -20 c-3 -9
-10 -16 -15 -16 -5 0 -4 9 3 20 14 22 21 20 12 -4z m61 6 c-3 -3 -11 0 -18 7
-9 10 -8 11 6 5 10 -3 15 -9 12 -12z m845 8 c0 -5 -2 -10 -4 -10 -2 0 -12 -3
-22 -7 -16 -6 -17 -5 -4 10 17 19 30 22 30 7z m245 0 c3 -5 1 -10 -4 -10 -6 0
-11 5 -11 10 0 6 2 10 4 10 3 0 8 -4 11 -10z m66 -7 c13 -16 12 -17 -3 -4 -17
13 -22 21 -14 21 2 0 10 -8 17 -17z m182 2 c-3 -9 -8 -14 -10 -11 -3 3 -2 9 2
15 9 16 15 13 8 -4z m-6276 -1 c-3 -3 -12 -4 -19 -1 -8 3 -5 6 6 6 11 1 17 -2
13 -5z m463 -3 c0 -6 9 -8 20 -6 11 2 18 0 15 -6 -9 -14 -31 -11 -45 6 -9 10
-9 15 -1 15 6 0 11 -4 11 -9z m-720 -23 c0 -5 -4 -7 -9 -3 -5 3 -12 1 -16 -5
-4 -6 -11 -8 -16 -5 -13 8 13 34 28 28 7 -3 13 -9 13 -15z m1115 12 c3 -5 2
-10 -4 -10 -5 0 -13 5 -16 10 -3 6 -2 10 4 10 5 0 13 -4 16 -10z m4053 -11
c-20 -13 -28 -11 -22 5 3 8 12 12 21 9 12 -5 12 -7 1 -14z m1576 6 c17 -13 18
-15 3 -15 -9 0 -17 4 -17 10 0 5 -6 7 -14 4 -8 -3 -17 -1 -21 5 -9 16 27 13
49 -4z m351 -6 c-3 -4 4 -13 15 -19 22 -12 27 -1 8 18 -7 7 -8 12 -2 12 6 0
16 -12 22 -26 7 -14 8 -23 2 -19 -5 3 -10 1 -10 -4 0 -13 -38 18 -51 41 -7 14
-6 16 6 12 8 -3 13 -10 10 -15z m-6984 2 c-12 -8 -51 -4 -51 5 0 2 15 4 33 4
22 0 28 -3 18 -9z m697 0 c10 -6 9 -11 -4 -22 -12 -9 -15 -10 -10 -1 4 7 1 12
-9 12 -9 0 -13 5 -10 10 7 12 16 12 33 1z m1052 -1 c0 -5 -5 -10 -11 -10 -5 0
-7 5 -4 10 3 6 8 10 11 10 2 0 4 -4 4 -10z m2360 0 c0 -5 -5 -10 -11 -10 -5 0
-7 5 -4 10 3 6 8 10 11 10 2 0 4 -4 4 -10z m2490 -15 c28 -5 39 -15 17 -15
-10 0 -14 -5 -11 -15 8 -20 50 -19 58 1 3 8 11 12 16 9 13 -8 -26 -45 -46 -45
-13 0 -74 71 -74 86 0 5 4 3 8 -4 5 -7 19 -14 32 -17z m-6472 -10 c-3 -3 -9 2
-12 12 -6 14 -5 15 5 6 7 -7 10 -15 7 -18z m6102 15 c0 -5 -7 -7 -15 -4 -8 4
-15 8 -15 10 0 2 7 4 15 4 8 0 15 -4 15 -10z m51 3 c-11 -5 -11 -7 0 -15 12
-8 12 -9 0 -6 -22 6 -25 28 -4 27 12 0 14 -2 4 -6z m44 -3 c-3 -5 -11 -10 -16
-10 -6 0 -7 5 -4 10 3 6 11 10 16 10 6 0 7 -4 4 -10z m580 0 c-3 -5 -11 -10
-16 -10 -6 0 -7 5 -4 10 3 6 11 10 16 10 6 0 7 -4 4 -10z m-6367 -21 c9 -12 9
-16 -1 -16 -7 0 -14 9 -14 20 -1 11 -1 18 0 16 2 -2 8 -11 15 -20z m6212 11
c0 -5 -2 -10 -4 -10 -3 0 -8 5 -11 10 -3 6 -1 10 4 10 6 0 11 -4 11 -10z m600
5 c0 -7 -30 -13 -34 -7 -3 4 4 9 15 9 10 1 19 0 19 -2z m-7620 -12 c-1 -18
-18 -35 -24 -24 -4 6 -2 11 4 11 6 0 8 5 5 10 -3 6 -1 10 4 10 6 0 11 -3 11
-7z m252 -5 c-17 -17 -39 -18 -39 -2 0 8 11 14 26 14 19 0 22 -3 13 -12z m181
5 c-7 -2 -13 -9 -13 -14 0 -4 7 -6 15 -3 8 3 21 -1 30 -9 14 -14 12 -15 -10
-13 -14 2 -31 8 -37 14 -12 12 -2 32 15 31 9 0 9 -2 0 -6z m42 -4 c11 -16 1
-19 -13 -3 -7 8 -8 14 -3 14 5 0 13 -5 16 -11z m6953 -7 c2 -7 -1 -12 -8 -12
-6 0 -9 4 -6 9 4 5 1 12 -4 14 -6 3 -5 4 2 3 6 -1 14 -8 16 -14z m330 4 c-2
-1 -10 -7 -20 -14 -12 -10 -18 -10 -24 -1 -4 8 -3 9 5 5 6 -4 14 0 17 8 3 9
10 13 16 10 5 -3 8 -7 6 -8z m-838 -6 c0 -5 -5 -10 -11 -10 -5 0 -7 5 -4 10 3
6 8 10 11 10 2 0 4 -4 4 -10z m74 2 c3 -5 -1 -9 -9 -9 -8 0 -15 4 -15 9 0 4 4
8 9 8 6 0 12 -4 15 -8z m49 -8 c3 -3 3 -12 0 -20 -4 -11 -9 -12 -19 -3 -8 6
-11 15 -8 20 6 10 18 12 27 3z m317 0 c0 -8 -19 -13 -24 -6 -3 5 1 9 9 9 8 0
15 -2 15 -3z m-7685 -24 c10 -11 16 -20 13 -20 -3 0 -13 9 -23 20 -10 11 -16
20 -13 20 3 0 13 -9 23 -20z m256 -10 c6 0 7 5 4 10 -3 6 1 10 9 10 22 0 20
-12 -5 -44 -17 -21 -24 -24 -35 -15 -19 16 -18 28 4 24 9 -1 11 0 4 2 -7 3 -9
9 -6 15 4 7 2 8 -4 4 -7 -4 -17 -4 -24 0 -8 5 -6 10 8 14 12 5 22 2 27 -6 4
-8 13 -14 18 -14z m332 16 c4 -10 1 -13 -8 -9 -8 3 -12 9 -9 14 7 12 11 11 17
-5z m-403 -7 c0 -5 -9 -9 -20 -9 -11 0 -20 -4 -20 -8 0 -5 -6 -16 -13 -26 -12
-16 -13 -16 -13 7 0 14 5 25 11 24 5 -1 9 3 8 8 -1 6 10 11 23 11 13 1 24 -2
24 -7z m7125 2 c3 -5 2 -12 -3 -15 -5 -3 -9 1 -9 9 0 17 3 19 12 6z m325 -6
c-10 -12 -16 -13 -26 -4 -18 15 -18 14 12 17 23 2 25 0 14 -13z m375 5 c-3 -5
-11 -10 -16 -10 -6 0 -7 5 -4 10 3 6 11 10 16 10 6 0 7 -4 4 -10z m100 1 c3
-5 2 -12 -3 -15 -5 -3 -9 1 -9 9 0 17 3 19 12 6z m-7125 -11 c0 -5 -5 -10 -11
-10 -5 0 -7 5 -4 10 3 6 8 10 11 10 2 0 4 -4 4 -10z m7160 -4 c0 -2 -7 -9 -15
-16 -13 -11 -14 -10 -9 4 5 14 24 23 24 12z m54 -12 c3 -8 2 -12 -4 -9 -6 3
-10 10 -10 16 0 14 7 11 14 -7z m261 -2 c-3 -3 -11 0 -18 7 -9 10 -8 11 6 5
10 -3 15 -9 12 -12z m-8455 -8 c0 -2 -7 -4 -15 -4 -8 0 -15 4 -15 10 0 5 7 7
15 4 8 -4 15 -8 15 -10z m320 -5 c0 -11 -27 -12 -34 0 -3 4 -3 11 0 14 8 8 34
-3 34 -14z m7680 11 c0 -5 -6 -10 -12 -10 -10 0 -10 -2 -2 -8 9 -5 8 -11 -2
-20 -12 -11 -13 -9 -10 10 3 13 5 26 5 31 1 11 21 8 21 -3z m-7963 -6 c-3 -3
-12 -4 -19 -1 -8 3 -5 6 6 6 11 1 17 -2 13 -5z m8366 -9 c-3 -9 -8 -14 -10
-11 -3 3 -2 9 2 15 9 16 15 13 8 -4z m147 0 c0 -22 -37 -39 -44 -19 -4 10 0
14 12 12 9 -2 16 3 15 10 -2 6 2 12 7 12 6 0 10 -7 10 -15z m-9134 -30 c-3 -9
-10 -13 -16 -10 -6 4 -5 11 3 20 15 16 22 11 13 -10z m243 -1 c14 -12 -19 -1
-35 12 -18 14 -18 14 6 3 14 -6 27 -13 29 -15z m350 10 c-6 -7 -7 -19 -3 -25
4 -7 3 -9 -4 -5 -15 9 -11 43 5 43 9 0 10 -4 2 -13z m8231 6 c0 -5 -2 -10 -4
-10 -3 0 -8 5 -11 10 -3 6 -1 10 4 10 6 0 11 -4 11 -10z m126 -6 c-3 -7 0 -15
7 -17 7 -2 8 -8 4 -13 -5 -5 -14 -1 -21 8 -7 10 -15 16 -18 13 -2 -3 -5 1 -5
8 0 7 9 13 19 13 10 0 16 -6 14 -12z m-8785 -22 c-7 -2 -18 1 -23 6 -8 8 -4 9
13 5 13 -4 18 -8 10 -11z m203 10 c3 -5 -1 -9 -9 -9 -8 0 -12 4 -9 9 3 4 7 8
9 8 2 0 6 -4 9 -8z m8672 -24 c4 -7 3 -8 -4 -4 -7 4 -12 3 -12 -2 0 -6 -8 -13
-17 -17 -15 -5 -16 -4 -5 6 13 14 17 33 4 25 -5 -3 -9 1 -9 9 0 16 30 4 43
-17z m144 -11 c0 -11 -39 16 -45 31 -3 8 4 6 20 -5 13 -10 25 -21 25 -26z
m-9267 13 c-3 -11 -10 -23 -16 -27 -7 -4 -8 0 -4 11 4 10 7 22 7 27 0 5 4 9 9
9 5 0 7 -9 4 -20z m121 12 c3 -5 -1 -9 -9 -9 -8 0 -15 4 -15 9 0 4 4 8 9 8 6
0 12 -4 15 -8z m8786 -11 c0 -4 -8 -7 -19 -7 -11 0 -17 6 -14 13 5 12 33 7 33
-6z m-8995 -1 c3 -5 1 -10 -4 -10 -6 0 -11 5 -11 10 0 6 2 10 4 10 3 0 8 -4
11 -10z m250 0 c-3 -5 -12 -10 -18 -10 -7 0 -6 4 3 10 19 12 23 12 15 0z
m9416 -7 c13 -16 12 -17 -3 -4 -10 7 -18 15 -18 17 0 8 8 3 21 -13z m-9966 -4
c11 -17 -1 -21 -15 -4 -8 9 -8 15 -2 15 6 0 14 -5 17 -11z m415 1 c0 -5 -5
-10 -11 -10 -5 0 -7 5 -4 10 3 6 8 10 11 10 2 0 4 -4 4 -10z m53 -9 c-4 -3
-11 -10 -14 -14 -3 -5 -9 0 -11 11 -4 15 -1 18 14 14 10 -2 15 -7 11 -11z
m132 9 c3 -5 1 -10 -4 -10 -6 0 -11 5 -11 10 0 6 2 10 4 10 3 0 8 -4 11 -10z
m8835 -12 c0 -13 -23 -5 -28 10 -2 7 2 10 12 6 9 -3 16 -11 16 -16z m-9829 -5
c13 -16 12 -17 -3 -4 -10 7 -18 15 -18 17 0 8 8 3 21 -13z m73 9 c3 -5 -1 -9
-9 -9 -8 0 -12 4 -9 9 3 4 7 8 9 8 2 0 6 -4 9 -8z m577 -5 c-7 -7 -14 -8 -21
-1 -6 6 -2 10 12 11 16 2 18 -1 9 -10z m414 3 c-3 -5 -15 -7 -27 -5 -32 7 -31
12 2 13 17 0 28 -3 25 -8z m9238 -21 c-8 -8 -13 -8 -17 0 -4 6 -2 11 4 11 6 0
8 6 4 13 -6 10 -4 10 7 0 9 -10 10 -16 2 -24z m-10086 15 c-3 -3 -12 -4 -19
-1 -8 3 -5 6 6 6 11 1 17 -2 13 -5z m762 -7 c13 5 14 3 4 -7 -20 -21 -39 -20
-40 3 -2 14 1 17 9 9 6 -6 18 -8 27 -5z m201 -4 c0 5 5 5 12 1 8 -5 6 -10 -8
-14 -20 -8 -37 7 -27 23 3 5 9 3 14 -4 5 -8 9 -10 9 -6z m-502 -7 c-7 -8 -15
-12 -17 -11 -5 6 10 25 20 25 5 0 4 -6 -3 -14z m-777 -23 c-8 -15 -10 -15 -11
-2 0 17 10 32 18 25 2 -3 -1 -13 -7 -23z m238 -37 c8 -9 7 -17 -2 -29 -11 -15
-14 -14 -36 4 -13 11 -21 22 -19 25 3 3 13 -2 21 -11 9 -8 18 -15 21 -15 7 0
-1 35 -13 58 -6 11 -7 22 -3 26 3 4 10 -5 14 -19 3 -14 11 -32 17 -39z m281
29 c0 -5 -5 -3 -10 5 -5 8 -10 20 -10 25 0 6 5 3 10 -5 5 -8 10 -19 10 -25z
m-137 12 c4 3 7 1 7 -5 0 -14 -2 -14 -24 -6 -9 3 -16 11 -16 16 0 7 5 6 13 -1
8 -6 17 -8 20 -4z m47 9 c0 -3 -4 -8 -10 -11 -5 -3 -10 -1 -10 4 0 6 5 11 10
11 6 0 10 -2 10 -4z m138 -27 c-1 -16 -5 -26 -9 -23 -4 2 -10 0 -13 -5 -3 -5
5 -12 19 -15 14 -4 25 -11 25 -16 0 -14 -12 -12 -40 8 -28 19 -38 45 -14 35
11 -4 14 0 10 19 -3 16 1 25 9 25 8 0 13 -11 13 -28z m9946 10 c-3 -5 0 -17 8
-26 7 -10 8 -14 1 -10 -6 4 -13 4 -16 0 -2 -5 -3 -3 -1 3 1 6 -2 16 -8 22 -12
12 -1 35 13 26 5 -3 7 -10 3 -15z m271 3 c-3 -3 -11 0 -18 7 -9 10 -8 11 6 5
10 -3 15 -9 12 -12z m105 9 c0 -5 -7 -12 -16 -15 -14 -5 -15 -4 -4 9 14 17 20
19 20 6z m-10785 -21 c-3 -5 -12 -10 -18 -10 -7 0 -6 4 3 10 19 12 23 12 15 0z
m85 6 c0 -3 -4 -8 -10 -11 -5 -3 -10 -1 -10 4 0 6 5 11 10 11 6 0 10 -2 10 -4z
m140 0 c0 -11 -19 -15 -25 -6 -3 5 1 10 9 10 9 0 16 -2 16 -4z m117 -18 c2
-17 0 -19 -7 -8 -5 8 -6 18 -4 22 8 12 10 10 11 -14z m10153 7 c7 -9 8 -15 2
-15 -5 0 -12 7 -16 15 -3 8 -4 15 -2 15 2 0 9 -7 16 -15z m-10170 -29 c0 -6
-5 -4 -10 4 -8 12 -10 10 -10 -10 0 -18 -3 -21 -9 -11 -5 7 -6 22 -4 32 4 15
8 17 19 8 8 -6 14 -17 14 -23z m9900 12 c0 -18 -2 -20 -9 -8 -6 8 -7 18 -5 22
9 14 14 9 14 -14z m584 6 c3 -8 2 -12 -4 -9 -6 3 -10 10 -10 16 0 14 7 11 14
-7z m-10430 -18 c-6 -15 -24 -23 -24 -11 0 8 24 34 28 30 1 -1 0 -10 -4 -19z
m10003 3 c1 -15 -3 -19 -19 -17 -12 2 -23 9 -26 16 -2 8 2 10 14 5 12 -4 15
-3 10 5 -4 7 -1 12 6 12 8 0 14 -9 15 -21z m173 -6 c0 -19 -13 -9 -16 12 -1 8
2 13 7 9 5 -3 9 -12 9 -21z m390 7 c0 -5 -2 -10 -4 -10 -3 0 -8 5 -11 10 -3 6
-1 10 4 10 6 0 11 -4 11 -10z m-11660 -15 c0 -2 -9 -3 -19 -2 -11 0 -18 5 -15
9 4 6 34 0 34 -7z m11211 1 c5 3 9 0 9 -5 0 -6 0 -14 0 -18 1 -15 -48 -12 -54
4 -4 11 -2 14 9 9 10 -3 15 1 16 12 0 10 3 12 6 4 2 -6 9 -10 14 -6z m-10891
-48 c0 -5 -6 -3 -13 4 -8 7 -14 19 -14 26 0 11 4 10 14 -4 7 -10 13 -22 13
-26z m58 17 c0 -29 -7 -31 -34 -10 -18 14 -18 14 4 15 13 0 20 4 17 10 -3 6
-2 10 3 10 5 0 10 -11 10 -25z m11297 5 c3 0 4 4 1 8 -3 5 1 9 9 9 8 0 15 -4
15 -9 0 -15 -32 -21 -51 -9 -17 10 -19 8 -19 -14 0 -31 -29 -34 -48 -5 -10 16
-10 20 0 18 7 -2 19 -10 26 -18 12 -13 13 -13 9 1 -8 24 12 40 34 29 10 -6 20
-10 24 -10z m-11735 -15 c0 -11 -31 -11 -39 -1 -9 10 -6 12 14 8 14 -2 25 -6
25 -7z m111 -2 c13 -16 12 -17 -3 -4 -17 13 -22 21 -14 21 2 0 10 -8 17 -17z
m11849 2 c0 -2 -9 -3 -19 -2 -11 0 -18 5 -15 9 4 6 34 0 34 -7z m34 -1 c5 -14
4 -15 -9 -4 -17 14 -19 20 -6 20 5 0 12 -7 15 -16z m161 -2 c-3 -3 -11 0 -18
7 -9 10 -8 11 6 5 10 -3 15 -9 12 -12z m175 -2 c0 -5 -7 -7 -15 -4 -8 4 -15 8
-15 10 0 2 7 4 15 4 8 0 15 -4 15 -10z m-12455 -18 c-3 -3 -11 0 -18 7 -9 10
-8 11 6 5 10 -3 15 -9 12 -12z m11868 3 c-3 -9 -8 -14 -10 -11 -3 3 -2 9 2 15
9 16 15 13 8 -4z m470 3 c33 -16 33 -22 5 -42 -12 -9 -17 -16 -10 -16 6 0 12
-7 12 -15 0 -8 4 -15 9 -15 5 0 8 12 5 26 -3 18 -1 23 7 18 8 -4 9 -3 5 4 -4
7 -2 12 3 12 6 0 11 -7 11 -16 0 -8 4 -13 10 -9 5 3 6 13 3 23 -5 13 -3 14 7
5 7 -6 19 -9 26 -6 8 3 14 0 14 -6 0 -6 -9 -11 -19 -11 -10 0 -32 -16 -48 -36
l-29 -36 -24 22 c-18 15 -20 20 -7 16 14 -5 16 -2 8 13 -6 10 -7 21 -4 25 3 3
-1 6 -10 6 -9 0 -17 4 -17 8 0 5 7 9 15 9 8 0 15 -4 15 -9 0 -5 5 -6 10 -3 14
8 3 24 -24 35 -11 5 -16 9 -10 9 5 1 22 -5 37 -11z m92 -5 c17 -11 17 -13 2
-13 -9 0 -17 5 -17 11 0 6 -8 8 -19 4 -11 -3 -22 -1 -25 4 -9 14 35 10 59 -6z
m165 7 c0 -5 -5 -10 -11 -10 -5 0 -7 5 -4 10 3 6 8 10 11 10 2 0 4 -4 4 -10z
m162 -12 c-6 -6 -22 -13 -34 -14 -19 -2 -17 0 7 11 37 18 42 18 27 3z m-12813
-2 c-2 -2 -13 -8 -25 -14 -16 -8 -21 -8 -21 1 0 7 12 14 25 15 14 1 24 0 21
-2z m101 0 c0 -11 -19 -15 -25 -6 -3 5 1 10 9 10 9 0 16 -2 16 -4z m12154 -8
c-3 -4 -12 -8 -20 -8 -8 0 -13 4 -10 8 3 5 12 9 20 9 8 0 13 -4 10 -9z m61 2
c-3 -5 -12 -10 -18 -10 -7 0 -6 4 3 10 19 12 23 12 15 0z m-12568 -19 c-1 -14
-5 -17 -17 -12 -8 5 -22 6 -30 4 -13 -4 -13 -3 -1 5 8 6 20 8 28 5 7 -3 13 0
13 6 0 6 2 11 4 11 3 0 4 -9 3 -19z m120 7 c0 -7 4 -22 7 -33 6 -16 4 -15 -6
3 -8 12 -18 19 -23 15 -5 -4 -3 0 4 10 16 20 18 21 18 5z m12813 -9 c0 -4 -7
-6 -15 -3 -8 4 -15 10 -15 15 0 4 7 6 15 3 8 -4 15 -10 15 -15z m-13150 -1 c0
-4 -6 -8 -14 -8 -8 0 -17 4 -20 8 -2 4 4 8 15 8 10 0 19 -4 19 -8z m90 2 c0
-5 -5 -10 -12 -10 -9 0 -8 -3 1 -12 11 -10 14 -10 18 -1 4 10 8 9 19 -1 19
-20 18 -22 -12 -21 -28 2 -45 21 -37 42 6 15 23 18 23 3z m13006 -27 c-11 -11
-17 4 -9 23 7 18 8 18 11 1 2 -10 1 -21 -2 -24z m-12846 17 c0 -5 -5 -10 -11
-10 -5 0 -7 5 -4 10 3 6 8 10 11 10 2 0 4 -4 4 -10z m12543 -12 c3 -10 1 -18
-4 -18 -5 0 -9 6 -10 13 0 9 -2 9 -6 -1 -2 -6 -9 -10 -13 -7 -13 8 -2 32 15
32 7 0 16 -9 18 -19z m-12319 3 c3 -4 -3 -16 -13 -25 -17 -16 -19 -16 -24 3
-2 11 -2 22 1 25 8 9 30 7 36 -3z m12656 -6 c0 -8 -4 -15 -10 -15 -5 0 -7 7
-4 15 4 8 8 15 10 15 2 0 4 -7 4 -15z m75 -3 c-3 -3 -11 0 -18 7 -9 10 -8 11
6 5 10 -3 15 -9 12 -12z m-13266 -18 c-14 -17 -30 -9 -23 11 3 7 12 11 20 8
11 -4 12 -9 3 -19z m63 1 c-8 -16 -9 -16 -15 -1 -4 10 -3 15 3 11 6 -3 10 -1
10 6 0 7 3 10 6 6 3 -3 2 -13 -4 -22z m-147 -1 c-11 -9 -15 -20 -10 -36 5 -20
4 -21 -5 -5 -14 22 -5 54 16 54 15 0 15 -2 -1 -13z m195 12 c0 -2 -7 -7 -16
-10 -8 -3 -12 -2 -9 4 6 10 25 14 25 6z m170 -6 c0 -5 -4 -10 -10 -10 -5 0
-10 5 -10 10 0 6 5 10 10 10 6 0 10 -4 10 -10z m13190 -10 c0 -5 -8 -10 -17
-10 -15 0 -16 2 -3 10 19 12 20 12 20 0z m-100 -6 c0 -8 -19 -13 -24 -6 -3 5
1 9 9 9 8 0 15 -2 15 -3z m-13585 -33 c-6 -5 -25 10 -25 20 0 5 6 4 14 -3 8
-7 12 -15 11 -17z m65 25 c0 -3 -4 -8 -10 -11 -5 -3 -10 -1 -10 4 0 6 5 11 10
11 6 0 10 -2 10 -4z m13465 -16 c3 -5 1 -10 -4 -10 -6 0 -11 5 -11 10 0 6 2
10 4 10 3 0 8 -4 11 -10z m215 -2 c0 -4 -4 -8 -9 -8 -6 0 -12 4 -15 8 -3 5 1
9 9 9 8 0 15 -4 15 -9z m-13792 -33 c-3 -3 -9 2 -12 12 -6 14 -5 15 5 6 7 -7
10 -15 7 -18z m-367 -18 c-10 -9 -11 -8 -5 6 3 10 9 15 12 12 3 -3 0 -11 -7
-18z m319 8 c0 -1 -12 -2 -26 -2 -17 0 -22 2 -13 7 10 7 39 3 39 -5z m14003
-2 c-4 -11 -3 -14 5 -9 7 4 12 2 12 -3 0 -6 -4 -11 -9 -11 -14 0 -23 18 -16
30 10 16 15 12 8 -7z m-14154 -23 c-6 -16 -15 -30 -19 -30 -5 0 -3 14 3 30 6
17 15 30 19 30 4 0 2 -13 -3 -30z m14396 8 c5 4 5 1 1 -5 -10 -18 -23 -16 -30
3 -5 13 -4 14 7 6 8 -7 18 -8 22 -4z m-14365 -8 c0 -5 -5 -10 -11 -10 -5 0 -7
5 -4 10 3 6 8 10 11 10 2 0 4 -4 4 -10z m-325 -18 c-3 -3 -11 0 -18 7 -9 10
-8 11 6 5 10 -3 15 -9 12 -12z m14629 -8 c4 -11 2 -12 -14 -1 -11 6 -20 15
-20 19 0 12 28 -3 34 -18z m251 16 c3 -5 2 -10 -4 -10 -5 0 -13 5 -16 10 -3 6
-2 10 4 10 5 0 13 -4 16 -10z m-14495 -10 c0 -4 -6 -13 -14 -19 -10 -8 -16 -8
-25 3 -9 11 -9 15 1 18 20 7 38 6 38 -2z m14019 3 c-3 -21 2 -34 11 -28 6 4 7
12 4 18 -4 7 -4 9 1 5 4 -4 15 -2 24 5 8 6 6 -1 -6 -16 -12 -16 -19 -35 -16
-43 3 -8 0 -14 -6 -14 -10 0 -15 14 -12 33 0 4 -3 7 -8 7 -7 0 -8 17 -2 38 2
6 11 1 10 -5z m378 1 c-3 -3 -12 -4 -19 -1 -8 3 -5 6 6 6 11 1 17 -2 13 -5z
m-14597 -10 c0 -8 -19 -13 -24 -6 -3 5 1 9 9 9 8 0 15 -2 15 -3z m140 -6 c0
-4 -4 -8 -9 -8 -6 0 -12 4 -15 8 -3 5 1 9 9 9 8 0 15 -4 15 -9z m-204 -11 c8
3 14 1 14 -5 0 -13 -27 -9 -40 6 -7 8 -7 9 1 3 6 -5 18 -7 25 -4z m14577 -8
c5 -3 2 -9 -5 -12 -9 -3 -14 3 -15 15 -1 11 1 16 5 12 4 -5 11 -12 15 -15z
m107 11 c0 -5 -10 -10 -22 -9 -22 0 -22 1 -3 9 11 5 21 9 23 9 1 1 2 -3 2 -9z
m60 0 c0 -5 -5 -10 -11 -10 -5 0 -7 5 -4 10 3 6 8 10 11 10 2 0 4 -4 4 -10z
m-14876 -12 c-3 -4 -11 -5 -19 -1 -21 7 -19 12 4 10 11 0 18 -5 15 -9z m306 3
c0 -6 -4 -12 -8 -15 -5 -3 -9 1 -9 9 0 8 4 15 9 15 4 0 8 -4 8 -9z m14526 -16
c-3 -9 -11 -13 -16 -10 -6 4 -22 -1 -36 -10 -14 -9 -28 -14 -31 -11 -3 3 2 8
11 12 9 3 14 9 12 13 -2 3 8 7 22 8 15 0 28 6 30 13 2 6 6 9 9 6 3 -3 3 -12
-1 -21z m-177 -27 c-11 -21 -20 -23 -37 -6 -19 19 -14 36 11 40 27 4 39 -10
26 -34z m263 -4 c-9 -16 -10 -14 -9 8 1 15 6 23 11 18 4 -4 4 -16 -2 -26z
m-15091 12 c14 8 11 -2 -4 -14 -10 -8 -13 -6 -14 11 0 12 1 16 4 9 3 -6 9 -10
14 -6z m-91 -6 c0 -5 -5 -10 -11 -10 -5 0 -7 5 -4 10 3 6 8 10 11 10 2 0 4 -4
4 -10z m175 0 c-3 -5 -14 -10 -23 -9 -14 0 -13 2 3 9 27 11 27 11 20 0z m-135
-10 c0 -5 -5 -10 -11 -10 -5 0 -7 5 -4 10 3 6 8 10 11 10 2 0 4 -4 4 -10z m9
-30 c-6 -5 -18 -6 -26 -3 -19 8 -16 11 13 11 17 0 22 -3 13 -8z m-87 -22 c-12
-12 -35 -1 -27 12 3 5 13 6 21 3 10 -4 12 -9 6 -15z m118 -8 c0 -5 -5 -10 -11
-10 -5 0 -7 5 -4 10 3 6 8 10 11 10 2 0 4 -4 4 -10z"/>
<path d="M6371 8794 c0 -11 3 -14 6 -6 3 7 2 16 -1 19 -3 4 -6 -2 -5 -13z"/>
<path d="M15030 8139 c0 -14 29 -17 34 -4 3 9 -2 13 -15 12 -10 -1 -19 -4 -19
-8z"/>
<path d="M7405 8830 c-3 -5 -11 -8 -18 -6 -7 1 -9 1 -5 -1 4 -3 2 -10 -5 -18
-7 -7 -15 -11 -19 -8 -5 2 -16 -1 -25 -6 -16 -9 -14 -10 9 -11 14 0 28 -3 31
-7 2 -5 3 -3 2 2 -2 11 31 46 38 39 2 -2 4 3 4 11 0 17 -3 19 -12 5z"/>
<path d="M9328 8824 c-30 -15 -38 -30 -13 -20 18 7 20 -5 3 -22 -9 -9 -9 -15
0 -24 6 -6 15 -8 19 -4 4 4 1 11 -7 16 -13 9 -7 14 12 11 4 0 4 7 1 16 -4 11
-3 14 6 9 6 -4 11 -4 10 1 -3 19 2 27 10 14 10 -15 3 -51 -10 -51 -5 0 -9 -5
-9 -10 0 -7 6 -7 19 -1 29 16 22 82 -9 80 -3 0 -17 -7 -32 -15z"/>
<path d="M7459 8800 c-25 -28 -58 -43 -44 -20 3 6 1 10 -5 10 -7 0 -10 -6 -8
-12 6 -16 58 -19 55 -4 -1 6 4 10 11 8 8 -1 11 2 7 8 -3 5 -2 10 4 10 5 0 13
-4 16 -10 3 -5 15 -15 26 -20 15 -9 19 -7 19 5 0 9 -4 14 -9 10 -5 -3 -17 2
-25 11 -9 8 -14 20 -11 25 13 21 -12 6 -36 -21z"/>
<path d="M7015 8809 c-4 -5 -11 -7 -16 -4 -5 4 -9 1 -9 -5 0 -6 11 -9 25 -7
31 4 40 13 21 20 -9 4 -18 2 -21 -4z"/>
<path d="M8629 8818 c-1 -5 -2 -12 -3 -17 0 -5 -4 -13 -8 -17 -5 -4 -8 -12 -8
-18 0 -6 5 -3 11 7 5 9 16 17 24 17 8 0 17 5 21 12 5 7 3 8 -6 3 -7 -4 -16 -2
-21 6 -5 8 -9 11 -10 7z"/>
<path d="M9028 8798 c-2 -17 -10 -23 -33 -25 -16 -1 -24 1 -18 5 7 4 9 13 4
21 -6 10 -10 9 -15 -4 -3 -9 -4 -21 0 -26 6 -11 45 -12 60 -1 15 10 25 40 14
47 -5 3 -10 -5 -12 -17z"/>
<path d="M8507 8802 c-5 -7 4 -17 22 -27 36 -18 45 -19 35 -4 -3 6 0 15 7 20
8 4 16 4 20 -2 4 -7 8 -5 12 3 4 11 -4 14 -28 14 -18 0 -31 -4 -29 -8 3 -5 -1
-8 -10 -8 -8 0 -16 5 -18 12 -3 9 -6 9 -11 0z"/>
<path d="M8930 8800 c0 -5 5 -10 10 -10 6 0 10 5 10 10 0 6 -4 10 -10 10 -5 0
-10 -4 -10 -10z"/>
<path d="M8995 8800 c4 -6 11 -8 16 -5 14 9 11 15 -7 15 -8 0 -12 -5 -9 -10z"/>
<path d="M9064 8803 c4 -7 2 -13 -3 -13 -6 0 -11 -4 -11 -9 0 -5 9 -7 20 -4
21 6 29 -12 8 -19 -7 -3 -5 -7 6 -11 10 -4 15 -3 11 3 -3 6 -2 10 4 10 5 0 13
-4 16 -10 3 -5 10 -10 15 -10 5 0 -1 10 -14 23 -34 33 -61 54 -52 40z"/>
<path d="M6765 8790 c-3 -5 -1 -10 4 -10 6 0 11 5 11 10 0 6 -2 10 -4 10 -3 0
-8 -4 -11 -10z"/>
<path d="M8103 8783 c-7 -2 -13 -9 -13 -14 0 -6 5 -7 10 -4 6 3 10 2 10 -2 0
-5 11 -9 24 -9 25 0 30 26 6 34 -9 3 -11 -1 -7 -11 4 -11 2 -14 -8 -10 -8 3
-12 9 -9 14 6 10 5 10 -13 2z"/>
<path d="M8676 8781 c-3 -5 1 -11 9 -14 9 -4 12 -1 8 9 -6 16 -10 17 -17 5z"/>
<path d="M7017 8767 c2 -4 10 -6 16 -4 7 2 18 -3 25 -12 11 -14 12 -13 3 6 -6
12 -19 21 -30 20 -11 0 -17 -5 -14 -10z"/>
<path d="M7260 8770 c-13 -8 -12 -10 3 -10 9 0 17 5 17 10 0 12 -1 12 -20 0z"/>
<path d="M7560 8770 c20 -13 43 -13 35 0 -3 6 -16 10 -28 10 -18 0 -19 -2 -7
-10z"/>
<path d="M7825 8770 c-3 -5 -1 -10 4 -10 6 0 11 5 11 10 0 6 -2 10 -4 10 -3 0
-8 -4 -11 -10z"/>
<path d="M8170 8770 c0 -5 5 -10 11 -10 5 0 7 5 4 10 -3 6 -8 10 -11 10 -2 0
-4 -4 -4 -10z"/>
<path d="M8930 8766 c0 -9 5 -16 10 -16 6 0 10 4 10 9 0 6 -4 13 -10 16 -5 3
-10 -1 -10 -9z"/>
<path d="M9397 8762 c-27 -32 -30 -47 -4 -23 14 12 30 20 36 16 18 -10 52 -15
46 -5 -3 4 -18 13 -34 18 -24 8 -32 7 -44 -6z"/>
<path d="M9650 8766 c0 -9 5 -16 10 -16 6 0 10 4 10 9 0 6 -4 13 -10 16 -5 3
-10 -1 -10 -9z"/>
<path d="M10322 8771 c-10 -6 -10 -10 3 -21 8 -7 18 -10 22 -6 3 3 1 6 -6 6
-7 0 -9 5 -6 10 4 6 11 7 17 4 7 -4 8 -2 4 4 -8 14 -16 15 -34 3z"/>
<path d="M5990 8760 c0 -5 5 -10 11 -10 5 0 7 5 4 10 -3 6 -8 10 -11 10 -2 0
-4 -4 -4 -10z"/>
<path d="M6070 8755 c0 -8 4 -15 10 -15 5 0 7 7 4 15 -4 8 -8 15 -10 15 -2 0
-4 -7 -4 -15z"/>
<path d="M6506 8751 c-15 -16 -15 -19 -2 -24 11 -4 13 -1 9 10 -5 12 -2 15 10
10 11 -4 14 -2 10 9 -7 18 -6 18 -27 -5z"/>
<path d="M7294 8754 c-18 -14 -18 -15 4 -4 12 6 22 13 22 15 0 8 -5 6 -26 -11z"/>
<path d="M7480 8759 c0 -5 5 -7 10 -4 6 3 10 8 10 11 0 2 -4 4 -10 4 -5 0 -10
-5 -10 -11z"/>
<path d="M8478 8763 c7 -3 16 -2 19 1 4 3 -2 6 -13 5 -11 0 -14 -3 -6 -6z"/>
<path d="M8898 8763 c7 -3 16 -2 19 1 4 3 -2 6 -13 5 -11 0 -14 -3 -6 -6z"/>
<path d="M9179 8759 c-10 -6 -7 -9 14 -9 29 0 35 5 14 13 -8 3 -20 1 -28 -4z"/>
<path d="M9813 8756 c-9 -11 -7 -14 11 -12 14 0 22 6 19 14 -6 15 -15 15 -30
-2z"/>
<path d="M6608 8753 c7 -3 16 -2 19 1 4 3 -2 6 -13 5 -11 0 -14 -3 -6 -6z"/>
<path d="M6916 8748 c3 -5 10 -6 15 -3 13 9 11 12 -6 12 -8 0 -12 -4 -9 -9z"/>
<path d="M7095 8741 c17 -19 21 -20 23 -7 2 9 9 13 15 10 7 -4 6 -1 -2 7 -11
11 -14 11 -18 1 -4 -10 -8 -10 -21 0 -11 8 -9 4 3 -11z"/>
<path d="M7505 8749 c-4 -6 -5 -12 -2 -15 2 -3 7 2 10 11 7 17 1 20 -8 4z"/>
<path d="M9916 8743 c-4 -9 -2 -11 7 -6 6 4 34 8 61 10 71 3 70 13 -2 11 -41
-1 -63 -6 -66 -15z"/>
<path d="M10262 8746 c7 -8 15 -12 17 -11 5 6 -10 25 -20 25 -5 0 -4 -6 3 -14z"/>
<path d="M5806 8735 c-3 -9 -10 -13 -16 -10 -6 3 -7 -1 -4 -9 3 -9 11 -16 17
-16 6 0 7 3 4 7 -4 3 -2 12 5 20 6 7 9 16 6 19 -3 3 -8 -2 -12 -11z"/>
<path d="M5893 8737 c0 -8 6 -14 14 -14 9 0 10 4 2 14 -6 7 -12 13 -14 13 -1
0 -2 -6 -2 -13z"/>
<path d="M6850 8735 c-7 -8 -8 -15 -2 -15 5 0 15 7 22 15 7 8 8 15 2 15 -5 0
-15 -7 -22 -15z"/>
<path d="M7400 8746 c0 -2 8 -10 18 -17 15 -13 16 -12 3 4 -13 16 -21 21 -21
13z"/>
<path d="M7998 8743 c6 -2 9 -10 6 -15 -4 -7 -2 -8 5 -4 13 9 5 26 -12 25 -9
0 -8 -2 1 -6z"/>
<path d="M8255 8740 c3 -5 8 -10 11 -10 2 0 4 5 4 10 0 6 -5 10 -11 10 -5 0
-7 -4 -4 -10z"/>
<path d="M10066 8737 c3 -10 9 -15 12 -12 3 3 0 11 -7 18 -10 9 -11 8 -5 -6z"/>
<path d="M10210 8740 c0 -6 4 -9 9 -6 5 4 12 1 14 -4 3 -6 4 -5 3 2 -3 15 -26
23 -26 8z"/>
<path d="M10503 8728 c-1 -10 0 -18 2 -18 2 0 9 8 14 18 7 14 6 19 -3 19 -6 0
-13 -9 -13 -19z"/>
<path d="M10700 8745 c0 -2 10 -10 23 -16 20 -11 21 -11 8 4 -13 16 -31 23
-31 12z"/>
<path d="M6000 8730 c-9 -6 -10 -10 -3 -10 6 0 15 5 18 10 8 12 4 12 -15 0z"/>
<path d="M8130 8732 c0 -5 7 -13 16 -16 10 -4 14 -1 12 6 -5 15 -28 23 -28 10z"/>
<path d="M9296 8732 c-3 -5 1 -9 9 -9 8 0 12 4 9 9 -3 4 -7 8 -9 8 -2 0 -6 -4
-9 -8z"/>
<path d="M9510 8736 c0 -2 7 -7 16 -10 8 -3 12 -2 9 4 -6 10 -25 14 -25 6z"/>
<path d="M9815 8720 c-3 -6 1 -7 9 -4 18 7 21 14 7 14 -6 0 -13 -4 -16 -10z"/>
<path d="M10030 8726 c0 -2 7 -7 16 -10 8 -3 12 -2 9 4 -6 10 -25 14 -25 6z"/>
<path d="M10456 8723 c6 -4 14 -15 17 -23 5 -11 6 -9 4 4 -1 11 -9 21 -17 23
-10 3 -11 2 -4 -4z"/>
<path d="M10578 8719 c-10 -5 -18 -15 -18 -21 0 -7 4 -7 13 1 8 6 16 9 19 6 2
-3 5 2 5 10 0 8 -1 15 -1 15 -1 0 -9 -5 -18 -11z"/>
<path d="M10645 8720 c-3 -5 -5 -10 -3 -11 33 -8 38 -7 27 7 -14 17 -16 17
-24 4z"/>
<path d="M10842 8720 c6 -21 45 -25 45 -5 0 8 -4 15 -9 15 -4 0 -8 -5 -8 -11
0 -8 -6 -7 -17 2 -14 12 -16 12 -11 -1z"/>
<path d="M5709 8703 c-13 -16 -12 -17 4 -4 16 13 21 21 13 21 -2 0 -10 -8 -17
-17z"/>
<path d="M6065 8710 c-3 -5 -2 -10 4 -10 5 0 13 5 16 10 3 6 2 10 -4 10 -5 0
-13 -4 -16 -10z"/>
<path d="M10744 8708 c-5 -8 -2 -9 9 -5 9 3 23 0 31 -8 18 -18 27 -19 24 -2
-6 26 -50 37 -64 15z"/>
<path d="M10930 8710 c0 -5 5 -10 11 -10 5 0 7 5 4 10 -3 6 -8 10 -11 10 -2 0
-4 -4 -4 -10z"/>
<path d="M11183 8713 c-18 -7 -16 -23 2 -23 8 0 15 7 15 15 0 8 -1 15 -2 14
-2 0 -9 -3 -15 -6z"/>
<path d="M4542 8690 c7 -11 18 -20 25 -20 8 0 5 8 -7 20 -11 11 -22 20 -25 20
-3 0 0 -9 7 -20z"/>
<path d="M5615 8700 c3 -5 8 -10 11 -10 2 0 4 5 4 10 0 6 -5 10 -11 10 -5 0
-7 -4 -4 -10z"/>
<path d="M7181 8694 c0 -11 3 -14 6 -6 3 7 2 16 -1 19 -3 4 -6 -2 -5 -13z"/>
<path d="M11567 8695 c-4 -8 -2 -17 3 -20 6 -4 10 3 10 14 0 25 -6 27 -13 6z"/>
<path d="M5590 8690 c0 -5 5 -10 11 -10 5 0 7 5 4 10 -3 6 -8 10 -11 10 -2 0
-4 -4 -4 -10z"/>
<path d="M9418 8693 c7 -3 16 -2 19 1 4 3 -2 6 -13 5 -11 0 -14 -3 -6 -6z"/>
<path d="M9710 8696 c0 -2 7 -7 16 -10 8 -3 12 -2 9 4 -6 10 -25 14 -25 6z"/>
<path d="M5125 8680 c-7 -12 -7 -12 23 -15 18 -2 20 0 11 11 -14 17 -25 18
-34 4z"/>
<path d="M5470 8675 c-10 -12 -10 -18 -2 -26 7 -5 10 -6 7 -3 -2 4 0 15 6 25
12 23 6 25 -11 4z"/>
<path d="M5640 8679 c0 -5 5 -7 10 -4 6 3 10 8 10 11 0 2 -4 4 -10 4 -5 0 -10
-5 -10 -11z"/>
<path d="M10860 8675 c0 -5 11 -11 24 -11 15 -1 23 3 20 10 -6 14 -44 16 -44
1z"/>
<path d="M10918 8678 c6 -6 20 -13 29 -14 16 -2 16 -1 -1 12 -24 17 -45 19
-28 2z"/>
<path d="M11518 8683 c6 -2 12 -14 12 -25 0 -18 2 -19 16 -7 14 12 14 14 -2
26 -10 7 -23 13 -28 12 -6 0 -5 -3 2 -6z"/>
<path d="M11590 8679 c0 -5 5 -7 10 -4 6 3 10 8 10 11 0 2 -4 4 -10 4 -5 0
-10 -5 -10 -11z"/>
<path d="M4750 8662 c0 -12 4 -22 9 -22 10 0 9 26 -2 36 -4 4 -7 -2 -7 -14z"/>
<path d="M5285 8670 c-3 -5 -1 -10 4 -10 6 0 11 5 11 10 0 6 -2 10 -4 10 -3 0
-8 -4 -11 -10z"/>
<path d="M5395 8670 c-3 -5 -1 -10 4 -10 6 0 11 5 11 10 0 6 -2 10 -4 10 -3 0
-8 -4 -11 -10z"/>
<path d="M11125 8670 c-3 -5 -1 -10 4 -10 6 0 11 5 11 10 0 6 -2 10 -4 10 -3
0 -8 -4 -11 -10z"/>
<path d="M11270 8670 c0 -5 5 -10 11 -10 5 0 7 5 4 10 -3 6 -8 10 -11 10 -2 0
-4 -4 -4 -10z"/>
<path d="M4461 8653 c-7 -8 -10 -17 -6 -21 3 -3 10 0 14 7 6 9 11 10 15 2 4
-6 5 -15 1 -20 -3 -5 0 -13 6 -17 7 -4 9 -3 5 4 -3 5 -2 12 3 14 5 1 2 12 -8
24 -14 18 -19 19 -30 7z"/>
<path d="M4978 8663 c7 -3 16 -2 19 1 4 3 -2 6 -13 5 -11 0 -14 -3 -6 -6z"/>
<path d="M10665 8660 c-16 -7 -17 -9 -3 -9 9 -1 20 4 23 9 7 11 7 11 -20 0z"/>
<path d="M10810 8666 c0 -2 7 -7 16 -10 8 -3 12 -2 9 4 -6 10 -25 14 -25 6z"/>
<path d="M11605 8660 c-3 -5 -13 -6 -23 -3 -14 5 -15 3 -4 -8 17 -18 15 -34
-2 -20 -11 9 -16 9 -22 0 -4 -7 -3 -9 4 -5 5 3 12 1 14 -5 2 -5 11 -7 20 -4 9
4 14 13 11 21 -3 9 0 13 8 11 8 -2 11 -2 6 0 -4 3 -5 9 -1 14 3 5 3 9 0 9 -3
0 -7 -4 -11 -10z"/>
<path d="M11659 8653 c-13 -15 -12 -15 9 -4 23 12 28 21 13 21 -5 0 -15 -7
-22 -17z"/>
<path d="M4690 8656 c0 -2 7 -6 15 -10 8 -3 15 -1 15 4 0 6 -7 10 -15 10 -8 0
-15 -2 -15 -4z"/>
<path d="M4895 8650 c3 -5 8 -10 11 -10 2 0 4 5 4 10 0 6 -5 10 -11 10 -5 0
-7 -4 -4 -10z"/>
<path d="M4782 8638 c2 -6 10 -14 16 -16 7 -2 10 2 6 12 -7 18 -28 22 -22 4z"/>
<path d="M5110 8646 c0 -2 7 -9 15 -16 9 -7 15 -8 15 -2 0 5 -7 12 -15 16 -8
3 -15 4 -15 2z"/>
<path d="M5175 8641 c-6 -11 13 -26 22 -17 4 3 1 6 -6 6 -7 0 -9 5 -6 10 3 6
4 10 1 10 -3 0 -7 -4 -11 -9z"/>
<path d="M11187 8633 c3 -7 8 -13 12 -13 4 0 8 6 8 13 0 8 -6 14 -13 14 -7 0
-10 -6 -7 -14z"/>
<path d="M11695 8639 c-4 -6 -4 -13 -1 -16 3 -4 6 -1 6 6 0 7 5 9 10 6 6 -3
10 -1 10 4 0 14 -17 14 -25 0z"/>
<path d="M11810 8641 c0 -6 4 -13 10 -16 6 -3 7 1 4 9 -7 18 -14 21 -14 7z"/>
<path d="M4753 8615 c0 -8 4 -12 9 -9 5 3 6 10 3 15 -9 13 -12 11 -12 -6z"/>
<path d="M4847 8623 c-4 -3 -7 -11 -7 -17 0 -6 5 -5 12 2 6 6 9 14 7 17 -3 3
-9 2 -12 -2z"/>
<path d="M4920 8619 c0 -5 5 -7 10 -4 6 3 10 8 10 11 0 2 -4 4 -10 4 -5 0 -10
-5 -10 -11z"/>
<path d="M11450 8621 c0 -5 7 -12 16 -15 14 -5 15 -4 4 9 -14 17 -20 19 -20 6z"/>
<path d="M11611 8609 c-13 -10 -18 -19 -13 -19 6 0 14 5 17 10 4 7 12 7 25 0
14 -7 19 -6 22 8 7 25 -21 25 -51 1z"/>
<path d="M12023 8610 c-38 -23 -39 -26 -17 -34 12 -5 15 -2 10 10 -4 10 -2 14
6 11 7 -2 12 -10 10 -16 -1 -7 2 -10 7 -6 6 3 7 13 4 22 -4 10 -2 14 4 10 5
-3 10 0 10 8 0 8 -1 15 -1 15 -1 0 -16 -9 -33 -20z"/>
<path d="M4450 8610 c0 -5 5 -10 11 -10 5 0 7 5 4 10 -3 6 -8 10 -11 10 -2 0
-4 -4 -4 -10z"/>
<path d="M11215 8610 c-3 -6 1 -7 9 -4 18 7 21 14 7 14 -6 0 -13 -4 -16 -10z"/>
<path d="M11845 8610 c3 -5 8 -10 11 -10 2 0 4 5 4 10 0 6 -5 10 -11 10 -5 0
-7 -4 -4 -10z"/>
<path d="M4185 8598 c22 -16 55 -20 55 -6 0 4 -9 8 -19 8 -11 0 -28 3 -38 6
-16 6 -15 4 2 -8z"/>
<path d="M12380 8606 c0 -2 7 -7 16 -10 8 -3 12 -2 9 4 -6 10 -25 14 -25 6z"/>
<path d="M4301 8586 c-7 -8 -26 -14 -42 -14 -37 1 -39 -1 -22 -32 12 -21 14
-22 12 -5 -2 33 0 35 28 24 15 -6 24 -7 20 -3 -4 4 0 16 10 26 9 10 14 18 11
18 -3 0 -11 -6 -17 -14z"/>
<path d="M11344 8589 c-3 -6 -2 -15 3 -20 5 -5 9 -1 9 11 0 23 -2 24 -12 9z"/>
<path d="M11548 8586 c-22 -16 -23 -23 -4 -23 8 0 14 5 13 11 -1 6 4 10 11 9
6 -2 12 2 12 7 0 13 -11 12 -32 -4z"/>
<path d="M11765 8590 c-3 -5 -1 -10 4 -10 6 0 11 5 11 10 0 6 -2 10 -4 10 -3
0 -8 -4 -11 -10z"/>
<path d="M4077 8584 c-10 -11 -9 -44 3 -44 5 0 6 8 3 18 -6 15 -5 15 11 2 10
-8 27 -15 38 -17 17 -3 19 -1 8 12 -7 8 -21 15 -30 15 -10 0 -20 5 -22 11 -2
5 -7 7 -11 3z"/>
<path d="M4170 8575 c0 -8 7 -15 15 -15 9 0 12 6 9 15 -4 8 -10 15 -15 15 -5
0 -9 -7 -9 -15z"/>
<path d="M11450 8585 c0 -10 29 -24 34 -17 3 6 -3 12 -14 15 -11 3 -20 4 -20
2z"/>
<path d="M11586 8572 c-3 -5 1 -9 9 -9 8 0 12 4 9 9 -3 4 -7 8 -9 8 -2 0 -6
-4 -9 -8z"/>
<path d="M11960 8570 c0 -5 5 -10 10 -10 6 0 10 5 10 10 0 6 -4 10 -10 10 -5
0 -10 -4 -10 -10z"/>
<path d="M4010 8559 c0 -5 5 -7 10 -4 6 3 10 8 10 11 0 2 -4 4 -10 4 -5 0 -10
-5 -10 -11z"/>
<path d="M4045 8559 c-4 -6 -5 -12 -2 -15 2 -3 7 2 10 11 7 17 1 20 -8 4z"/>
<path d="M12086 8554 c-5 -14 -4 -15 9 -4 17 14 19 20 6 20 -5 0 -12 -7 -15
-16z"/>
<path d="M12262 8561 c-11 -6 -9 -9 5 -13 12 -3 20 0 20 8 0 16 -6 17 -25 5z"/>
<path d="M12020 8556 c0 -2 7 -7 16 -10 8 -3 12 -2 9 4 -6 10 -25 14 -25 6z"/>
<path d="M3530 8540 c0 -5 5 -10 10 -10 6 0 10 5 10 10 0 6 -4 10 -10 10 -5 0
-10 -4 -10 -10z"/>
<path d="M3566 8535 c-3 -8 -1 -15 4 -15 6 0 10 7 10 15 0 8 -2 15 -4 15 -2 0
-6 -7 -10 -15z"/>
<path d="M3936 8535 c-11 -8 -15 -15 -9 -15 6 0 16 7 23 15 16 19 11 19 -14 0z"/>
<path d="M4170 8536 c6 -6 18 -5 32 2 22 10 21 10 -9 9 -19 -1 -28 -6 -23 -11z"/>
<path d="M12314 8535 c-10 -8 -14 -15 -8 -15 6 0 17 7 24 15 16 19 9 19 -16 0z"/>
<path d="M12626 8535 c4 -8 11 -15 18 -15 6 0 4 -5 -4 -10 -8 -5 -10 -10 -5
-11 6 0 1 -4 -10 -9 -16 -7 -17 -9 -3 -9 20 -1 29 11 33 45 2 18 -3 24 -16 24
-12 0 -16 -5 -13 -15z"/>
<path d="M12475 8520 c-3 -5 -1 -10 4 -10 6 0 11 5 11 10 0 6 -2 10 -4 10 -3
0 -8 -4 -11 -10z"/>
<path d="M12570 8514 c0 -17 14 -18 28 -1 8 10 6 13 -9 14 -10 1 -19 -5 -19
-13z"/>
<path d="M12805 8521 c-10 -17 12 -21 25 -6 10 12 10 15 -3 15 -9 0 -18 -4
-22 -9z"/>
<path d="M3530 8508 c0 -6 3 -8 7 -5 3 4 13 1 22 -6 14 -11 14 -10 2 6 -15 20
-31 22 -31 5z"/>
<path d="M3607 8492 c-22 -24 -22 -39 -1 -18 8 9 20 14 25 11 5 -4 6 1 3 9 -8
20 -7 20 -27 -2z"/>
<path d="M3855 8499 c-4 -6 -5 -12 -2 -15 2 -3 7 2 10 11 7 17 1 20 -8 4z"/>
<path d="M12766 8495 c3 -6 13 -11 24 -12 15 -1 17 1 8 11 -15 16 -38 17 -32
1z"/>
<path d="M12834 8487 c0 -13 6 -24 13 -24 8 0 9 6 3 17 -5 10 -6 20 -3 24 3 3
2 6 -4 6 -6 0 -10 -10 -9 -23z"/>
<path d="M3501 8490 c-9 -5 -4 -7 13 -7 29 0 32 2 13 10 -8 3 -20 2 -26 -3z"/>
<path d="M3390 8486 c0 -2 7 -7 16 -10 8 -3 12 -2 9 4 -6 10 -25 14 -25 6z"/>
<path d="M3451 8481 c-8 -6 -9 -11 -3 -15 6 -3 14 -1 17 5 9 14 2 20 -14 10z"/>
<path d="M3667 8476 c-4 -9 3 -13 21 -13 15 0 21 2 14 4 -6 3 -10 9 -6 14 3 5
-1 9 -9 9 -8 0 -17 -6 -20 -14z"/>
<path d="M3345 8465 c-3 -8 -7 -22 -10 -30 -8 -25 5 -17 15 11 6 15 14 22 22
18 7 -4 8 -3 4 4 -10 17 -26 15 -31 -3z"/>
<path d="M3546 8465 c-3 -8 -1 -15 4 -15 13 0 22 18 11 24 -5 3 -11 -1 -15 -9z"/>
<path d="M3795 8470 c-3 -5 1 -10 10 -10 9 0 13 5 10 10 -3 6 -8 10 -10 10 -2
0 -7 -4 -10 -10z"/>
<path d="M2850 8463 c0 -6 5 -15 11 -19 8 -4 7 -9 -2 -15 -10 -6 -5 -9 16 -9
25 1 27 2 13 11 -10 5 -22 17 -27 27 -6 9 -11 12 -11 5z"/>
<path d="M2910 8454 c0 -8 5 -12 10 -9 6 4 8 11 5 16 -9 14 -15 11 -15 -7z"/>
<path d="M2539 8438 c-12 -22 -11 -22 8 -5 11 9 23 14 28 10 4 -5 5 -2 1 5
-11 18 -24 15 -37 -10z"/>
<path d="M12790 8456 c0 -2 7 -6 15 -10 8 -3 15 -1 15 4 0 6 -7 10 -15 10 -8
0 -15 -2 -15 -4z"/>
<path d="M2982 8435 c-7 -8 -9 -15 -4 -15 5 0 15 7 22 15 16 19 -1 19 -18 0z"/>
<path d="M3178 8443 c6 -2 18 -2 25 0 6 3 1 5 -13 5 -14 0 -19 -2 -12 -5z"/>
<path d="M2718 8426 c-9 -8 -24 -12 -36 -9 -11 2 -29 0 -39 -6 -15 -8 -12 -10
14 -6 20 2 33 -2 37 -10 5 -15 43 -12 60 5 7 7 5 15 -5 26 -14 14 -18 14 -31
0z m32 -16 c0 -5 -3 -10 -7 -11 -5 0 -17 -2 -28 -4 -20 -4 -20 -4 -1 11 23 16
36 18 36 4z"/>
<path d="M12844 8432 c4 -3 14 -7 22 -8 9 -1 13 0 10 4 -4 3 -14 7 -22 8 -9 1
-13 0 -10 -4z"/>
<path d="M13410 8430 c0 -5 5 -10 11 -10 5 0 7 5 4 10 -3 6 -8 10 -11 10 -2 0
-4 -4 -4 -10z"/>
<path d="M2574 8421 c3 -5 15 -7 26 -4 28 7 25 13 -6 13 -14 0 -23 -4 -20 -9z"/>
<path d="M13210 8419 c0 -5 5 -7 10 -4 6 3 10 8 10 11 0 2 -4 4 -10 4 -5 0
-10 -5 -10 -11z"/>
<path d="M2395 8410 c3 -5 10 -10 16 -10 5 0 9 5 9 10 0 6 -7 10 -16 10 -8 0
-12 -4 -9 -10z"/>
<path d="M2550 8408 c0 -9 7 -19 16 -22 15 -6 15 -4 3 11 -7 10 -15 20 -16 22
-2 2 -3 -3 -3 -11z"/>
<path d="M3270 8410 c0 -5 5 -10 11 -10 5 0 7 5 4 10 -3 6 -8 10 -11 10 -2 0
-4 -4 -4 -10z"/>
<path d="M13090 8412 c0 -5 7 -9 15 -9 8 0 12 4 9 9 -3 4 -9 8 -15 8 -5 0 -9
-4 -9 -8z"/>
<path d="M13440 8409 c0 -5 5 -7 10 -4 6 3 10 8 10 11 0 2 -4 4 -10 4 -5 0
-10 -5 -10 -11z"/>
<path d="M2985 8400 c-3 -5 1 -10 10 -10 9 0 13 5 10 10 -3 6 -8 10 -10 10 -2
0 -7 -4 -10 -10z"/>
<path d="M13311 8394 c0 -11 3 -14 6 -6 3 7 2 16 -1 19 -3 4 -6 -2 -5 -13z"/>
<path d="M13370 8406 c0 -9 30 -14 35 -6 4 6 -3 10 -14 10 -12 0 -21 -2 -21
-4z"/>
<path d="M2598 8393 c7 -3 16 -2 19 1 4 3 -2 6 -13 5 -11 0 -14 -3 -6 -6z"/>
<path d="M2270 8381 c0 -6 4 -13 10 -16 6 -3 7 1 4 9 -7 18 -14 21 -14 7z"/>
<path d="M2506 8377 c3 -10 9 -15 12 -12 3 3 0 11 -7 18 -10 9 -11 8 -5 -6z"/>
<path d="M13734 8369 c1 -20 6 -25 26 -26 14 0 17 1 8 4 -11 3 -15 10 -11 20
4 10 2 14 -4 10 -6 -4 -13 -1 -16 5 -2 7 -4 2 -3 -13z"/>
<path d="M13358 8373 c6 -2 18 -2 25 0 6 3 1 5 -13 5 -14 0 -19 -2 -12 -5z"/>
<path d="M1855 8360 c-3 -5 -1 -10 4 -10 6 0 11 5 11 10 0 6 -2 10 -4 10 -3 0
-8 -4 -11 -10z"/>
<path d="M13633 8357 c0 -8 6 -14 14 -14 9 0 10 4 2 14 -6 7 -12 13 -14 13 -1
0 -2 -6 -2 -13z"/>
<path d="M13790 8361 c0 -5 5 -13 10 -16 6 -4 7 -12 4 -18 -5 -9 -4 -9 6 0 10
9 10 15 -4 28 -9 9 -16 12 -16 6z"/>
<path d="M2115 8350 c-4 -6 -15 -8 -26 -5 -10 4 -19 2 -19 -3 0 -5 11 -12 25
-14 13 -3 22 -2 20 3 -3 4 1 9 7 12 7 2 10 7 7 11 -4 4 -10 2 -14 -4z"/>
<path d="M13700 8350 c-9 -6 -10 -10 -3 -10 6 0 15 5 18 10 8 12 4 12 -15 0z"/>
<path d="M1527 8306 c-3 -8 -3 -17 1 -21 4 -4 7 -11 7 -16 0 -9 1 -9 33 -8 13
0 12 2 -5 9 -13 5 -23 17 -23 25 0 15 1 15 16 1 23 -23 30 -20 9 4 -21 24 -31
25 -38 6z"/>
<path d="M1800 8310 c0 -5 5 -10 10 -10 6 0 10 5 10 10 0 6 -4 10 -10 10 -5 0
-10 -4 -10 -10z"/>
<path d="M13756 8308 c3 -5 10 -6 15 -3 13 9 11 12 -6 12 -8 0 -12 -4 -9 -9z"/>
<path d="M14230 8300 c0 -23 13 -26 29 -6 9 11 8 15 -5 20 -23 9 -24 8 -24
-14z"/>
<path d="M1866 8301 c-4 -7 -5 -15 -2 -18 9 -9 19 4 14 18 -4 11 -6 11 -12 0z"/>
<path d="M2041 8294 c0 -11 3 -14 6 -6 3 7 2 16 -1 19 -3 4 -6 -2 -5 -13z"/>
<path d="M14170 8290 c0 -5 7 -7 15 -4 8 4 15 8 15 10 0 2 -7 4 -15 4 -8 0
-15 -4 -15 -10z"/>
<path d="M1416 8261 c10 -10 21 -17 23 -15 6 6 -20 34 -32 34 -6 0 -2 -8 9
-19z"/>
<path d="M1593 8258 c-2 -16 0 -16 13 -4 17 18 18 23 1 23 -7 0 -14 -9 -14
-19z"/>
<path d="M1707 8258 c-3 -10 -2 -18 2 -18 3 0 11 8 18 18 9 15 8 19 -2 19 -8
0 -16 -9 -18 -19z"/>
<path d="M1771 8276 c2 -2 15 -9 29 -16 23 -12 24 -12 11 3 -7 10 -20 17 -29
17 -8 0 -13 -2 -11 -4z"/>
<path d="M14146 8253 c-6 -14 -5 -15 5 -6 7 7 10 15 7 18 -3 3 -9 -2 -12 -12z"/>
<path d="M1375 8250 c-18 -8 -17 -9 8 -9 16 -1 26 3 22 9 -3 6 -7 10 -8 9 -1
0 -11 -4 -22 -9z"/>
<path d="M1225 8241 c-6 -11 9 -23 19 -14 9 9 7 23 -3 23 -6 0 -12 -4 -16 -9z"/>
<path d="M1670 8242 c0 -12 19 -26 26 -19 2 2 -2 10 -11 17 -9 8 -15 8 -15 2z"/>
<path d="M14419 8233 c-13 -16 -12 -17 4 -4 9 7 17 15 17 17 0 8 -8 3 -21 -13z"/>
<path d="M1525 8230 c3 -5 8 -10 11 -10 2 0 4 5 4 10 0 6 -5 10 -11 10 -5 0
-7 -4 -4 -10z"/>
<path d="M14570 8222 c-18 -14 -19 -19 -7 -19 9 0 13 5 10 10 -3 5 0 7 8 5 8
-3 13 -11 12 -19 -2 -8 5 -19 15 -26 15 -9 19 -8 19 3 0 7 -4 11 -8 8 -4 -2
-10 0 -14 6 -5 9 6 14 26 12 3 -1 6 5 6 13 0 8 -4 12 -8 9 -4 -2 -9 -1 -12 3
-2 5 -2 2 0 -5 1 -8 -3 -12 -9 -9 -7 2 -12 10 -10 16 3 15 -2 14 -28 -7z"/>
<path d="M14525 8210 c-3 -5 -1 -10 4 -10 6 0 11 5 11 10 0 6 -2 10 -4 10 -3
0 -8 -4 -11 -10z"/>
<path d="M14960 8205 c-10 -12 -10 -15 1 -15 12 0 12 -2 1 -9 -11 -7 -10 -10
3 -15 9 -3 19 -6 21 -6 7 0 4 35 -5 48 -6 10 -10 10 -21 -3z"/>
<path d="M1025 8201 c-3 -5 -2 -12 3 -15 5 -3 9 1 9 9 0 17 -3 19 -12 6z"/>
<path d="M1080 8200 c8 -5 15 -15 15 -22 0 -17 20 -22 20 -5 1 13 -24 36 -40
37 -5 0 -3 -5 5 -10z"/>
<path d="M14480 8200 c0 -5 5 -10 11 -10 5 0 7 5 4 10 -3 6 -8 10 -11 10 -2 0
-4 -4 -4 -10z"/>
<path d="M14766 8192 c-3 -5 1 -15 8 -21 11 -10 14 -9 12 3 -3 21 -13 29 -20
18z"/>
<path d="M14531 8187 c2 -1 11 -8 21 -15 12 -10 18 -10 24 -1 4 7 3 9 -4 5 -6
-3 -13 -2 -17 4 -3 5 -11 10 -17 10 -6 0 -9 -1 -7 -3z"/>
<path d="M998 8163 c6 -2 18 -2 25 0 6 3 1 5 -13 5 -14 0 -19 -2 -12 -5z"/>
<path d="M1135 8150 c-3 -5 -2 -10 4 -10 5 0 13 5 16 10 3 6 2 10 -4 10 -5 0
-13 -4 -16 -10z"/>
<path d="M1196 8148 c3 -5 10 -6 15 -3 13 9 11 12 -6 12 -8 0 -12 -4 -9 -9z"/>
<path d="M14885 8150 c-7 -11 2 -30 13 -30 4 0 8 9 8 20 0 21 -11 26 -21 10z"/>
<path d="M14750 8130 c0 -5 5 -10 11 -10 5 0 7 5 4 10 -3 6 -8 10 -11 10 -2 0
-4 -4 -4 -10z"/>
<path d="M775 8120 c-3 -5 -1 -10 4 -10 6 0 11 5 11 10 0 6 -2 10 -4 10 -3 0
-8 -4 -11 -10z"/>
<path d="M14918 8107 c-3 -18 0 -23 16 -25 15 -1 17 1 7 7 -8 5 -11 16 -8 25
4 9 3 16 -2 16 -5 0 -11 -10 -13 -23z"/>
<path d="M378 8106 c-10 -7 -18 -18 -18 -25 0 -6 -7 -11 -15 -11 -8 0 -15 -6
-15 -12 -1 -8 -8 -4 -18 8 -19 22 -42 21 -42 -2 0 -19 -46 -48 -65 -40 -8 3
-15 1 -15 -3 0 -5 6 -11 13 -14 16 -6 57 10 57 22 0 5 17 8 38 6 20 -1 37 -4
37 -5 0 -1 14 -3 30 -5 24 -3 27 -2 12 6 -9 6 -21 8 -26 4 -5 -3 -12 -1 -16 4
-3 6 4 15 15 21 13 7 20 7 20 0 0 -5 8 -10 18 -10 15 1 15 2 -2 15 -18 14 -15
20 7 16 5 -1 6 3 2 9 -9 14 8 13 24 -2 11 -11 11 -9 2 10 -13 25 -19 26 -43 8z
m-71 -52 c-3 -3 -12 -4 -19 -1 -8 3 -5 6 6 6 11 1 17 -2 13 -5z"/>
<path d="M818 8113 c7 -3 16 -2 19 1 4 3 -2 6 -13 5 -11 0 -14 -3 -6 -6z"/>
<path d="M14807 8109 c7 -7 15 -10 18 -7 3 3 -2 9 -12 12 -14 6 -15 5 -6 -5z"/>
<path d="M15191 8099 c-20 -21 -20 -39 0 -39 5 0 9 9 9 19 0 11 5 23 12 27 8
5 9 2 5 -9 -3 -10 -2 -17 4 -17 6 0 8 -4 5 -8 -3 -5 8 -6 25 -4 16 2 29 9 29
14 0 6 -7 8 -15 5 -8 -4 -17 -1 -21 5 -4 6 -3 8 4 4 6 -3 13 -2 17 4 3 5 0 10
-9 10 -8 0 -21 3 -29 6 -8 3 -24 -5 -36 -17z"/>
<path d="M570 8090 c0 -5 5 -10 11 -10 5 0 7 5 4 10 -3 6 -8 10 -11 10 -2 0
-4 -4 -4 -10z"/>
<path d="M540 8081 c0 -6 4 -12 8 -15 5 -3 9 1 9 9 0 8 -4 15 -9 15 -4 0 -8
-4 -8 -9z"/>
<path d="M608 8083 c6 -2 18 -2 25 0 6 3 1 5 -13 5 -14 0 -19 -2 -12 -5z"/>
<path d="M15290 8080 c0 -5 7 -10 16 -10 8 0 12 5 9 10 -3 6 -10 10 -16 10 -5
0 -9 -4 -9 -10z"/>
<path d="M15330 8079 c0 -5 5 -7 10 -4 6 3 10 8 10 11 0 2 -4 4 -10 4 -5 0
-10 -5 -10 -11z"/>
<path d="M480 8060 c-9 -6 -10 -10 -3 -10 6 0 15 5 18 10 8 12 4 12 -15 0z"/>
<path d="M15116 8062 c-3 -5 1 -9 9 -9 8 0 12 4 9 9 -3 4 -7 8 -9 8 -2 0 -6
-4 -9 -8z"/>
<path d="M15240 8050 c-9 -6 -10 -10 -3 -10 6 0 15 5 18 10 8 12 4 12 -15 0z"/>
<path d="M15270 8050 c0 -8 67 -7 76 2 3 4 -12 7 -35 6 -23 0 -41 -4 -41 -8z"/>
<path d="M15198 8043 c7 -3 16 -2 19 1 4 3 -2 6 -13 5 -11 0 -14 -3 -6 -6z"/>
<path d="M15223 8022 c-7 -4 -9 -13 -4 -21 6 -10 10 -9 15 5 8 20 4 25 -11 16z"/>
<path d="M15278 8023 c7 -3 16 -2 19 1 4 3 -2 6 -13 5 -11 0 -14 -3 -6 -6z"/>
<path d="M278 8013 c7 -3 16 -2 19 1 4 3 -2 6 -13 5 -11 0 -14 -3 -6 -6z"/>
<path d="M15270 7992 c0 -5 7 -9 15 -9 8 0 12 4 9 9 -3 4 -9 8 -15 8 -5 0 -9
-4 -9 -8z"/>
<path d="M335 7981 c-3 -5 -2 -12 3 -15 5 -3 9 1 9 9 0 17 -3 19 -12 6z"/>
<path d="M15336 7974 c-5 -14 -4 -15 9 -4 17 14 19 20 6 20 -5 0 -12 -7 -15
-16z"/>
<path d="M120 7960 c0 -5 5 -10 10 -10 6 0 10 5 10 10 0 6 -4 10 -10 10 -5 0
-10 -4 -10 -10z"/>
<path d="M42 7951 c-11 -7 -11 -9 0 -14 9 -3 15 1 15 9 0 8 -1 14 -1 14 -1 0
-7 -4 -14 -9z"/>
<path d="M1390 6565 c-100 -17 -270 -67 -540 -159 -227 -78 -566 -185 -730
-231 l-115 -32 -3 -3072 -2 -3071 7680 0 7680 0 0 3155 c0 1735 -2 3155 -5
3155 -2 0 -60 -13 -127 -29 -68 -17 -199 -46 -293 -66 -93 -21 -309 -68 -480
-107 -170 -38 -391 -85 -490 -104 -333 -65 -609 -122 -753 -158 -350 -86 -536
-97 -1343 -84 -429 7 -646 7 -749 -1 -173 -13 -252 -3 -665 80 -302 61 -461
101 -1069 268 -391 108 -574 125 -861 81 -432 -66 -759 -67 -1220 -4 -60 8
-175 18 -255 21 -171 7 -249 -6 -430 -69 -657 -230 -830 -270 -1272 -288 -396
-17 -618 0 -1018 80 -348 70 -484 87 -1005 125 -73 6 -125 19 -276 70 -223 75
-329 105 -509 140 -270 53 -382 91 -610 205 -189 95 -209 101 -340 105 -70 3
-148 -2 -200 -10z m6399 -1359 c-2 -2 -42 -11 -89 -20 -437 -84 -429 -118 44
-191 200 -31 408 -56 716 -85 173 -17 367 -37 430 -45 122 -15 197 -22 295
-30 33 -3 80 -7 105 -10 25 -3 65 -8 90 -11 69 -8 93 -12 120 -18 14 -4 70
-11 125 -17 100 -12 129 -14 195 -18 30 -1 32 -3 17 -12 -40 -24 -334 -113
-552 -168 -228 -57 -618 -128 -1030 -186 -743 -105 -1005 -169 -1005 -246 0
-29 33 -56 177 -144 197 -121 308 -214 333 -281 29 -75 -2 -149 -77 -187 -175
-89 -456 -136 -1093 -182 -474 -35 -1092 -83 -1210 -94 -52 -6 -131 -13 -175
-16 -126 -9 -401 -34 -500 -45 -296 -32 -404 -44 -619 -71 -237 -29 -294 -33
-246 -20 19 6 24 13 22 32 l-4 24 20 -23 c20 -23 21 -23 19 -3 0 11 -3 18 -6
16 -2 -3 -11 0 -18 7 -11 9 -17 9 -24 -3 -7 -11 -9 -11 -9 0 0 7 -6 11 -15 8
-8 -4 -17 -1 -21 5 -4 7 -3 8 4 4 7 -4 12 -1 12 8 0 9 5 16 10 16 6 0 10 -7
10 -16 0 -8 5 -12 11 -9 6 4 8 13 5 20 -3 8 3 19 11 27 14 11 16 11 11 -3 -5
-12 1 -15 22 -15 20 0 26 4 23 14 -5 11 -7 11 -15 0 -8 -10 -9 -10 -5 2 2 8
-3 20 -11 26 -13 9 -12 11 2 11 9 0 16 -4 16 -8 0 -4 7 -10 16 -13 11 -4 15
-2 11 8 -4 9 1 15 11 15 35 2 68 8 91 18 13 5 37 9 53 8 28 -2 39 10 16 17 -8
3 -8 9 0 24 10 16 11 17 12 2 0 -9 5 -20 12 -24 7 -4 8 -3 4 4 -4 7 -2 12 3
12 6 0 11 -6 11 -12 0 -9 3 -9 9 1 5 8 8 22 6 31 -2 9 3 17 10 17 7 0 11 -6 8
-13 -2 -6 0 -15 5 -18 5 -3 10 0 9 7 -1 31 4 47 14 47 6 0 9 -7 5 -15 -3 -8
-1 -15 4 -15 6 0 10 8 10 19 0 15 6 18 31 15 18 -2 28 0 24 6 -11 18 5 32 21
19 10 -8 14 -8 14 0 0 6 7 11 16 11 8 0 12 5 9 10 -4 6 -1 9 7 8 7 -2 12 3 10
10 -2 10 2 10 18 2 16 -9 20 -8 20 4 0 10 6 13 17 9 11 -4 14 -3 9 5 -5 8 -1
10 10 5 10 -4 15 -2 11 3 -3 5 6 10 21 11 15 0 52 5 82 12 30 6 219 38 420 72
617 102 771 131 938 180 151 44 237 76 325 121 123 64 146 111 82 167 -43 37
-80 56 -207 106 -93 36 -138 64 -138 85 0 20 56 71 88 79 20 6 32 6 32 0 0 -6
4 -8 9 -4 10 5 59 12 156 19 28 3 61 8 75 13 14 5 36 8 50 7 14 -1 29 1 34 4
5 3 28 7 50 8 43 3 70 7 121 17 17 4 42 9 57 11 53 9 193 37 253 51 56 13 127
22 455 60 69 8 224 26 345 40 453 53 645 92 645 132 0 53 -227 108 -710 173
-374 51 -547 79 -785 129 -222 46 -626 143 -620 149 2 2 76 4 165 5 89 0 164
5 166 9 3 5 12 4 20 -3 8 -6 14 -8 14 -3 0 5 30 10 68 10 37 1 112 4 167 8
263 15 347 19 427 20 49 0 88 3 88 6 0 3 24 5 53 6 97 1 227 9 227 14 0 3 12
5 26 5 14 -1 42 2 62 6 42 8 87 11 81 5z m-3406 -1733 c-7 -2 -19 -2 -25 0 -7
3 -2 5 12 5 14 0 19 -2 13 -5z m-229 -139 c3 -8 2 -12 -4 -9 -6 3 -10 10 -10
16 0 14 7 11 14 -7z m-64 -34 c0 -5 -5 -10 -11 -10 -5 0 -7 5 -4 10 3 6 8 10
11 10 2 0 4 -4 4 -10z m-73 -16 c-3 -3 -12 -4 -19 -1 -8 3 -5 6 6 6 11 1 17
-2 13 -5z m-192 -153 c3 -6 -3 -9 -14 -8 -11 0 -17 5 -15 9 7 11 22 10 29 -1z"/>
<path d="M4361 3417 c-13 -21 -12 -21 5 -5 10 10 16 20 13 22 -3 3 -11 -5 -18
-17z"/>
<path d="M4022 3254 c-7 -8 -8 -14 -3 -14 10 0 25 19 20 25 -2 1 -10 -3 -17
-11z"/>
<path d="M3954 3239 c-4 -7 -3 -9 4 -5 5 3 13 0 15 -6 4 -9 6 -10 6 -1 1 17
-16 25 -25 12z"/>
<path d="M3930 3166 c0 -2 7 -7 16 -10 8 -3 12 -2 9 4 -6 10 -25 14 -25 6z"/>
<path d="M3918 3143 c7 -3 16 -2 19 1 4 3 -2 6 -13 5 -11 0 -14 -3 -6 -6z"/>
</g>
</svg>
