<svg width="250" height="250" viewBox="0 0 250 250" fill="none" xmlns="http://www.w3.org/2000/svg">
<path d="M78.1458 0H105V11.2292H89.3749V22.4583H105V33.6875H78.1458V0Z" fill="#00B7FF"/>
<path d="M110.365 0H137.229V9.77083H121.604V11.7187H137.229V34.1771H110.365V23.9271H125.99V21.9687H110.365V0Z" fill="#00B7FF"/>
<path d="M142.604 0H169.448V9.77083H153.823V11.7187H169.448V34.1771H142.604V23.9271H158.229V21.9687H142.604V0Z" fill="#00B7FF"/>
<path fill-rule="evenodd" clip-rule="evenodd" d="M124.906 250L52.5729 229.917L31.25 49.1354H218.75L197.438 229.896L124.906 250ZM73.4063 130.969L75.3958 153.135H152.24L149.667 181.885L124.938 188.573H124.917L100.229 181.906L98.6458 164.229H76.3854L79.4896 199.042L124.906 211.646L170.396 199.042L175.937 136.917L176.479 130.969L180.479 86.0833H69.4167L71.4375 108.26H156.188L154.167 130.969H73.4063Z" fill="#00B7FF"/>
</svg>
