<svg width="250" height="250" viewBox="0 0 250 250" fill="none" xmlns="http://www.w3.org/2000/svg">
<g clip-path="url(#clip0_3239_25)">
<mask id="mask0_3239_25" style="mask-type:luminance" maskUnits="userSpaceOnUse" x="0" y="0" width="250" height="250">
<path d="M0 0H250V250H0V0Z" fill="white"/>
</mask>
<g mask="url(#mask0_3239_25)">
<path d="M52.9167 0H64.1876V11.1354H74.5001V0H85.7709V33.7083H74.5001V22.4271H64.1876V33.7083H52.9272L52.9167 0Z" fill="#FF0000"/>
<path d="M100.583 11.1771H90.6667V0H121.781V11.1771H111.854V33.7083H100.583V11.1771Z" fill="#FF0000"/>
<path d="M126.719 0H138.469L145.698 11.8437L152.917 0H164.667V33.7083H153.448V17L145.698 28.9896H145.5L137.74 17.0104V33.7083H126.719V0Z" fill="#FF0000"/>
<path d="M170.271 0H181.552V22.5729H197.385V33.7188H170.271V0Z" fill="#FF0000"/>
<path fill-rule="evenodd" clip-rule="evenodd" d="M52.5625 229.917L31.25 49.1354H218.75L197.427 229.896L124.896 250L52.5625 229.917ZM95.6562 130.958L93.6354 108.25H178.479L180.458 86.0833H69.4167L75.3958 153.135H152.24L149.667 181.885L124.938 188.573H124.917L100.229 181.906L98.6458 164.229H76.375L79.4792 199.042L124.896 211.646L170.385 199.042L175.927 136.917L176.469 130.969H95.6562V130.958Z" fill="#FF0000"/>
</g>
</g>
<defs>
<clipPath id="clip0_3239_25">
<rect width="250" height="250" fill="white"/>
</clipPath>
</defs>
</svg>
