<svg width="250" height="250" viewBox="0 0 250 250" fill="none" xmlns="http://www.w3.org/2000/svg">
<g clip-path="url(#clip0_3239_5)">
<path fill-rule="evenodd" clip-rule="evenodd" d="M0 0H250V250H0V0ZM191.115 209.583C179.521 209.583 172.969 203.542 167.938 195.312L148.844 206.406C155.74 220.031 169.833 230.427 191.656 230.427C213.969 230.427 230.583 218.844 230.583 197.688C230.583 178.073 219.313 169.354 199.354 160.781L193.479 158.271C183.396 153.896 179.031 151.052 179.031 144C179.031 138.302 183.406 133.938 190.281 133.938C197.021 133.938 201.365 136.781 205.396 144L223.688 132.26C215.948 118.646 205.219 113.448 190.281 113.448C169.302 113.448 155.875 126.865 155.875 144.49C155.875 163.604 167.125 172.656 184.083 179.875L189.958 182.396C200.677 187.083 207.063 189.938 207.063 197.99C207.063 204.719 200.844 209.583 191.115 209.583ZM100.073 209.427C92 209.427 88.6354 203.906 84.9479 197.344L65.8229 208.927C71.3646 220.656 82.2604 230.385 101.062 230.385C121.885 230.385 136.146 219.312 136.146 194.99V114.781H112.656V194.677C112.656 206.417 107.781 209.427 100.062 209.427H100.073Z" fill="#FFEE00"/>
</g>
<defs>
<clipPath id="clip0_3239_5">
<rect width="250" height="250" fill="white"/>
</clipPath>
</defs>
</svg>
