<svg width="250" height="250" viewBox="0 0 250 250" fill="none" xmlns="http://www.w3.org/2000/svg">
<g clip-path="url(#clip0_3239_62)">
<mask id="mask0_3239_62" style="mask-type:luminance" maskUnits="userSpaceOnUse" x="0" y="0" width="250" height="250">
<path d="M0 0H250V250H0V0Z" fill="white"/>
</mask>
<g mask="url(#mask0_3239_62)">
<path d="M116.813 0.0638021C116.271 0.115885 114.563 0.292969 113.021 0.407552C77.5208 3.61589 44.2708 22.7721 23.1875 52.22C11.5448 68.3838 3.97625 87.1194 1.125 106.835C0.125 113.71 0 115.73 0 125.043C0 134.355 0.125 136.387 1.125 143.251C7.91667 190.199 41.3333 229.637 86.6354 244.251C94.75 246.866 103.302 248.647 113.021 249.73C116.813 250.147 133.188 250.147 136.979 249.73C153.76 247.866 167.99 243.71 182.01 236.553C184.167 235.46 184.583 235.158 184.292 234.918C184.083 234.772 174.927 222.48 163.927 207.626L143.938 180.616L118.896 143.543C110.564 131.143 102.154 118.796 93.6667 106.501C93.5729 106.47 93.4792 122.939 93.4271 143.064C93.3542 178.272 93.3229 179.689 92.8854 180.522C92.4587 181.495 91.6973 182.282 90.7396 182.741C89.9583 183.137 89.2812 183.21 85.5833 183.21H81.3542L80.2292 182.501C79.533 182.062 78.9681 181.443 78.5938 180.71L78.0729 179.616L78.125 130.616L78.1979 81.595L78.9583 80.6367C79.4703 80.0376 80.0839 79.5333 80.7708 79.1471C81.7708 78.6575 82.1562 78.6159 86.3958 78.6159C91.375 78.6159 92.2083 78.8034 93.5 80.22C93.8646 80.6159 107.427 101.053 123.656 125.658L172.969 200.366L192.76 230.345L193.771 229.689C203.296 223.356 211.931 215.779 219.448 207.158C235.2 189.129 245.417 166.94 248.875 143.251C249.875 136.376 250 134.355 250 125.043C250 115.73 249.875 113.71 248.875 106.835C242.083 59.8971 208.667 20.4492 163.365 5.83463C154.898 3.14265 146.179 1.31732 137.344 0.386719C134.99 0.136719 118.844 -0.134115 116.823 0.0742187L116.813 0.0638021ZM167.99 75.6888C168.57 75.9813 169.088 76.386 169.511 76.8795C169.935 77.3729 170.257 77.9454 170.458 78.5638C170.646 79.1888 170.698 92.7825 170.646 123.408L170.573 167.345L162.833 155.47L155.063 143.595V111.658C155.063 91.0013 155.156 79.3971 155.302 78.8346C155.475 78.184 155.779 77.5753 156.194 77.0453C156.61 76.5153 157.128 76.0751 157.719 75.7513C158.729 75.2305 159.094 75.1888 162.927 75.1888C166.542 75.1888 167.177 75.2513 167.99 75.6888Z" fill="white"/>
</g>
</g>
<defs>
<clipPath id="clip0_3239_62">
<rect width="250" height="250" fill="white"/>
</clipPath>
</defs>
</svg>
