<svg width="250" height="250" viewBox="0 0 250 250" fill="none" xmlns="http://www.w3.org/2000/svg">
<g clip-path="url(#clip0_3239_20)">
<path d="M125 249.542C121.437 249.542 118.125 248.615 115.031 247.01L83.4791 228.906C78.7395 226.385 81.1145 225.469 82.5416 225.01C88.9375 222.948 90.125 222.49 96.7708 218.812C97.4791 218.354 98.4375 218.583 99.1458 219.042L123.344 233.031C124.281 233.49 125.479 233.49 126.187 233.031L220.844 180.073C221.781 179.615 222.26 178.698 222.26 177.552V71.8646C222.26 70.7188 221.792 69.8021 220.844 69.3437L126.187 16.625C125.24 16.1667 124.052 16.1667 123.344 16.625L28.6875 69.3437C27.7395 69.8021 27.2604 70.9479 27.2604 71.8646V177.552C27.2604 178.469 27.7395 179.615 28.6875 180.073L54.5416 194.521C68.5416 201.396 77.3125 193.375 77.3125 185.354V81.0417C77.3125 79.6667 78.5 78.2917 80.1666 78.2917H92.2604C93.6875 78.2917 95.1041 79.4375 95.1041 81.0417V185.344C95.1041 203.458 84.9062 214 67.1145 214C61.6562 214 57.3854 214 45.2916 208.271L20.3854 194.521C17.3842 192.87 14.8779 190.449 13.1254 187.506C11.373 184.563 10.4379 181.206 10.4166 177.781V72.0937C10.4166 65.2187 14.2083 58.8021 20.3854 55.3646L115.042 2.39583C118.123 0.815482 121.537 -0.00875854 125 -0.00875854C128.463 -0.00875854 131.877 0.815482 134.958 2.39583L229.625 55.3542C235.792 58.7917 239.583 65.2083 239.583 72.0833V177.771C239.583 184.646 235.792 191.062 229.625 194.51L134.958 247.458C131.815 248.821 128.426 249.523 125 249.521V249.542ZM154.177 176.865C112.667 176.865 104.125 158.531 104.125 142.937C104.125 141.562 105.312 140.187 106.969 140.187H119.302C120.729 140.187 121.906 141.104 121.906 142.479C123.812 154.625 129.271 160.583 154.417 160.583C174.344 160.583 182.885 156.229 182.885 145.917C182.885 139.958 180.51 135.604 149.437 132.625C123.573 130.094 107.448 124.604 107.448 104.656C107.448 86.0833 123.573 75.0729 150.625 75.0729C180.99 75.0729 195.937 85.1667 197.833 107.177C197.812 107.922 197.561 108.643 197.115 109.24C196.646 109.698 195.937 110.156 195.219 110.156H182.885C182.286 110.142 181.708 109.933 181.238 109.561C180.769 109.188 180.433 108.674 180.281 108.094C177.427 95.4896 170.073 91.3542 150.625 91.3542C128.792 91.3542 126.187 98.6875 126.187 104.187C126.187 110.844 129.271 112.906 158.687 116.573C187.865 120.24 201.625 125.51 201.625 145.219C201.385 165.406 184.312 176.865 154.177 176.865Z" fill="#8CC500"/>
</g>
<defs>
<clipPath id="clip0_3239_20">
<rect width="250" height="250" fill="white"/>
</clipPath>
</defs>
</svg>
