<svg width="250" height="250" viewBox="0 0 250 250" fill="none" xmlns="http://www.w3.org/2000/svg">
<mask id="mask0_3239_12" style="mask-type:luminance" maskUnits="userSpaceOnUse" x="0" y="0" width="250" height="250">
<path d="M0 0H250V250H0V0Z" fill="white"/>
</mask>
<g mask="url(#mask0_3239_12)">
<path d="M250 125.016C250 108.453 229.26 92.7554 197.458 83.0262C204.802 50.62 201.542 24.8283 187.167 16.5679C183.684 14.617 179.741 13.6351 175.75 13.7241V25.0783C178.094 25.0783 179.979 25.547 181.563 26.4116C188.49 30.3908 191.5 45.5158 189.156 64.9845C188.594 69.7762 187.677 74.8179 186.552 79.9637C175.902 77.3974 165.094 75.5426 154.198 74.4116C147.707 65.4563 140.625 56.9443 133 48.9325C149.615 33.495 165.208 25.0366 175.813 25.0366V13.672C161.792 13.672 143.448 23.6616 124.896 40.9845C106.354 23.7762 88 13.8804 73.9896 13.8804V25.2345C84.5417 25.2345 100.188 33.6512 116.802 48.9845C109.667 56.4845 102.531 64.9845 95.75 74.4116C84.8316 75.5301 74.0037 77.4026 63.3438 80.0158C62.1667 74.922 61.3021 69.9845 60.6875 65.245C58.2917 45.7658 61.25 30.6408 68.1354 26.62C69.6562 25.7033 71.6458 25.2866 73.9896 25.2866V13.9325C69.7188 13.9325 65.8333 14.8491 62.4792 16.7762C48.1563 25.0366 44.9479 50.7658 52.3333 83.0783C20.6354 92.87 0 108.505 0 125.016C0 141.578 20.7396 157.276 52.5417 166.995C45.1979 199.412 48.4583 225.203 62.8333 233.453C66.1458 235.391 70.0208 236.307 74.2917 236.307C88.3125 236.307 106.656 226.318 125.208 208.995C143.75 226.214 162.094 236.099 176.115 236.099C180.136 236.184 184.109 235.199 187.625 233.245C201.948 224.995 205.156 199.266 197.771 166.953C229.365 157.224 250 141.526 250 125.016ZM183.646 91.0262C181.667 97.8372 179.372 104.553 176.771 111.151C172.512 102.867 167.836 94.805 162.76 86.9949C170 88.0679 176.979 89.3908 183.656 91.0262H183.646ZM160.313 145.297C156.344 152.172 152.26 158.703 148.031 164.766C132.742 166.113 117.365 166.131 102.073 164.818C93.3015 152.289 85.6306 139.024 79.1458 125.172C85.6207 111.288 93.259 97.9763 101.979 85.3804C117.264 84.0301 132.638 84.0091 147.927 85.3179C152.156 91.3804 156.292 97.8595 160.26 104.693C164.135 111.36 167.656 118.13 170.865 124.964C167.621 131.88 164.1 138.663 160.313 145.297ZM176.771 138.672C179.521 145.495 181.875 152.328 183.802 158.953C177.135 160.589 170.094 161.964 162.812 163.026C167.867 155.145 172.526 147.017 176.771 138.672ZM125.104 193.047C120.365 188.151 115.625 182.703 110.938 176.735C115.521 176.943 120.208 177.099 124.948 177.099C129.74 177.099 134.479 176.995 139.115 176.735C134.531 182.703 129.792 188.151 125.104 193.047ZM87.1875 163.026C80.164 162.009 73.1913 160.667 66.2917 159.005C68.1771 152.432 70.5208 145.651 73.1667 138.88C75.2604 142.943 77.4583 147.026 79.8542 151.11C82.25 155.182 84.6875 159.162 87.1875 163.026ZM124.844 56.9845C129.583 61.8804 134.323 67.3283 139.01 73.297C134.427 73.0887 129.74 72.9325 125 72.9325C120.208 72.9325 115.469 73.0366 110.833 73.297C115.417 67.3283 120.156 61.8804 124.844 56.9845ZM87.1354 87.0054C82.082 94.8693 77.4234 102.98 73.1771 111.307C70.5022 104.666 68.1556 97.8978 66.1458 91.0262C72.8125 89.4429 79.8542 88.0679 87.1354 87.0054ZM41.0208 150.797C22.9792 143.11 11.3125 133.016 11.3125 125.016C11.3125 117.016 22.9792 106.87 41.0208 99.2345C45.3958 97.3491 50.1875 95.6616 55.1354 94.0887C58.0417 104.068 61.8646 114.464 66.5938 125.12C62.1288 135.143 58.3527 145.458 55.2917 155.995C50.4526 154.497 45.69 152.762 41.0208 150.797ZM68.4375 223.61C61.5104 219.651 58.5 204.505 60.8438 185.047C61.4063 180.255 62.3229 175.203 63.4479 170.057C73.4271 172.505 84.3333 174.391 95.8021 175.62C102.294 184.575 109.375 193.087 117 201.099C100.385 216.537 84.7917 224.995 74.1875 224.995C72.1869 225.017 70.2118 224.545 68.4375 223.62V223.61ZM189.312 184.787C191.708 204.255 188.75 219.391 181.865 223.412C180.344 224.328 178.354 224.735 176.01 224.735C165.458 224.735 149.812 216.328 133.198 200.985C140.333 193.505 147.469 184.995 154.25 175.568C165.168 174.449 175.996 172.577 186.656 169.964C187.833 175.11 188.74 180.047 189.312 184.787ZM208.927 150.797C204.552 152.682 199.76 154.37 194.812 155.943C191.698 145.352 187.869 134.985 183.354 124.912C188.042 114.318 191.802 103.974 194.656 94.0366C199.708 95.6095 204.49 97.3491 208.979 99.2345C227.021 106.922 238.688 117.016 238.688 125.016C238.635 133.016 226.969 143.162 208.927 150.797Z" fill="#61DAFB"/>
<path d="M124.948 148.307C131.125 148.307 137.05 145.854 141.418 141.485C145.786 137.117 148.24 131.193 148.24 125.016C148.24 118.838 145.786 112.914 141.418 108.546C137.05 104.178 131.125 101.724 124.948 101.724C118.771 101.724 112.846 104.178 108.478 108.546C104.11 112.914 101.656 118.838 101.656 125.016C101.656 131.193 104.11 137.117 108.478 141.485C112.846 145.854 118.771 148.307 124.948 148.307Z" fill="#61DAFB"/>
</g>
</svg>
