<svg width="250" height="250" viewBox="0 0 250 250" fill="none" xmlns="http://www.w3.org/2000/svg">
<path d="M2.37579 87.187C2.37579 87.187 -3.70754 82.7391 3.59454 76.8225L20.6258 61.4267C20.6258 61.4267 25.4904 56.2496 30.6466 60.76L187.74 180.989V238.634C187.74 238.634 187.667 247.697 176.178 246.697L2.36538 87.1766L2.37579 87.187Z" fill="#2756CD"/>
<path d="M42.8757 124.344L2.37578 161.552C2.37578 161.552 -1.79089 164.677 2.37578 170.271L21.1778 187.563C21.1778 187.563 25.6466 192.406 32.2403 186.886L75.1674 153.99L42.8757 124.344Z" fill="#2756CD"/>
<path d="M113.962 124.646L188.232 67.3341L187.743 9.99053C187.743 9.99053 184.566 -2.53025 173.993 3.99056L75.1699 94.8965L113.962 124.646Z" fill="#2756CD"/>
<path d="M176.168 246.77C180.48 251.229 185.709 249.77 185.709 249.77L243.584 220.948C250.991 215.843 249.949 209.51 249.949 209.51V37.3754C249.949 29.8129 242.293 27.1983 242.293 27.1983L192.126 2.75049C181.168 -4.09323 173.991 3.99007 173.991 3.99007C173.991 3.99007 183.22 -2.72865 187.741 9.99005V237.593C187.741 239.156 187.407 240.687 186.751 242.073C185.428 244.77 182.564 247.281 175.689 246.239L176.168 246.77Z" fill="#2756CD"/>
</svg>
